<svg version="1.1" xmlns="http://www.w3.org/2000/svg" xmlns:xlink="http://www.w3.org/1999/xlink" width="320" height="320"><defs/><g transform="scale(2,2)"><g id="background-b875fd44"><rect fill="white" stroke="none" x="0" y="0" width="160" height="160" class="dcg-svg-background"/></g><g id="background-images-b875fd44"/><g id="graphpaper-b875fd44"><g id="grid-b875fd44"><g><path fill="none" stroke="rgb(0,0,0)" class="dcg-svg-minor-gridline" paint-order="fill stroke markers" d=" M 16.5 0 L 16.5 160" stroke-opacity="0.2" stroke-miterlimit="10" stroke-dasharray=""/><path fill="none" stroke="rgb(0,0,0)" class="dcg-svg-minor-gridline" paint-order="fill stroke markers" d=" M 48.5 0 L 48.5 160" stroke-opacity="0.2" stroke-miterlimit="10" stroke-dasharray=""/><path fill="none" stroke="rgb(0,0,0)" class="dcg-svg-minor-gridline" paint-order="fill stroke markers" d=" M 112.5 0 L 112.5 160" stroke-opacity="0.2" stroke-miterlimit="10" stroke-dasharray=""/><path fill="none" stroke="rgb(0,0,0)" class="dcg-svg-minor-gridline" paint-order="fill stroke markers" d=" M 144.5 0 L 144.5 160" stroke-opacity="0.2" stroke-miterlimit="10" stroke-dasharray=""/><path fill="none" stroke="rgb(0,0,0)" class="dcg-svg-minor-gridline" paint-order="fill stroke markers" d=" M 0 144.5 L 160 144.5" stroke-opacity="0.2" stroke-miterlimit="10" stroke-dasharray=""/><path fill="none" stroke="rgb(0,0,0)" class="dcg-svg-minor-gridline" paint-order="fill stroke markers" d=" M 0 112.5 L 160 112.5" stroke-opacity="0.2" stroke-miterlimit="10" stroke-dasharray=""/><path fill="none" stroke="rgb(0,0,0)" class="dcg-svg-minor-gridline" paint-order="fill stroke markers" d=" M 0 48.5 L 160 48.5" stroke-opacity="0.2" stroke-miterlimit="10" stroke-dasharray=""/><path fill="none" stroke="rgb(0,0,0)" class="dcg-svg-minor-gridline" paint-order="fill stroke markers" d=" M 0 16.5 L 160 16.5" stroke-opacity="0.2" stroke-miterlimit="10" stroke-dasharray=""/></g></g><g id="axis-b875fd44"><g id="yaxis-b875fd44"><title>Y axis</title><g><path fill="none" stroke="rgb(0,0,0)" class="dcg-svg-axis-line" paint-order="fill stroke markers" d=" M 80 0 L 80 160" stroke-opacity="0.9" stroke-miterlimit="10" stroke-width="1.5" stroke-dasharray=""/></g></g><g id="xaxis-b875fd44"><title>X axis</title><g><path fill="none" stroke="rgb(0,0,0)" class="dcg-svg-axis-line" paint-order="fill stroke markers" d=" M 0 80 L 160 80" stroke-opacity="0.9" stroke-miterlimit="10" stroke-width="1.5" stroke-dasharray=""/></g></g><g><g class="dcg-svg-axis-value"><text fill="none" stroke="#ffffff" font-family="Arial" font-size="10px" font-style="normal" font-weight="normal" text-decoration="normal" x="72.21923828125" y="92.72" text-anchor="middle" stroke-miterlimit="2" stroke-width="3" stroke-dasharray="">0</text><text fill="#000000" stroke="none" font-family="Arial" font-size="10px" font-style="normal" font-weight="normal" text-decoration="normal" x="72.21923828125" y="92.72" text-anchor="middle">0</text></g></g></g></g><g id="expressions-b875fd44"><g id="sketch-b875fd44"><title>Expression 1</title><path fill="#c74440" stroke="none" paint-order="stroke fill markers" d="" fill-opacity="0.4"/><g><path fill="none" stroke="#c74440" class="dcg-svg-curve" paint-order="fill stroke markers" d=" M 16 80 L 16 80 L 16.28403426540288 80.05334134266101 L 16.78794620191119 80.24500632609833 L 17.54132723592017 80.66436272858643 L 18.430229018490508 81.30148302710083 L 19.5159631884925 82.23551210666653 L 20.795058762594692 83.50568702719254 L 22.263426600435018 85.140314016972 L 23.91637247719273 87.15574870202998 L 25.748612090554673 89.55572420037126 L 27.987573476281987 92.66175019915036 L 30.687152462349495 96.5754446272353 L 35.31741318441776 103.4856971254892 L 40.45698476221861 111.11183544666517 L 43.6947872558876 115.74558073378495 L 46.38882368247707 119.4421159813333 L 48.815991953578745 122.62008772396203 L 51.30347417023795 125.70475730286509 L 53.47996281642983 128.24539479239942 L 55.694137886604736 130.66568459744923 L 57.942852916830915 132.94286263215864 L 59.84086274206051 134.71552896904763 L 61.75876720192153 136.36194125794515 L 63.69467355626355 137.8710551409462 L 65.64667129923961 139.2326867188281 L 67.61283404474496 140.43759977509077 L 69.19465953838504 141.28313984411062 L 70.78330991665587 142.01940448558514 L 72.37778175392835 142.64316320732215 L 73.9770679476151 143.15167327177892 L 75.58015835427804 143.54269477454636 L 77.18604042765665 143.81450296166207 L 78.79369985821388 143.96589771602243 L 80.40212121379578 143.9962101591875 L 82.01028858100021 143.9053063312044 L 83.61718620684958 143.69358792761477 L 85.2217991403621 143.3619900894751 L 86.82311387361663 142.91197625890067 L 88.42011898190609 142.34553012925815 L 90.01180576257478 141.6651447355805 L 91.5971688721368 140.87380874696453 L 93.17520696127242 139.97499003855216 L 95.13593580951839 138.706345271682 L 97.08172731650404 137.28455749211804 L 99.01066122093025 135.7192519572842 L 100.92083389791634 134.02096764266065 L 102.81036023764806 132.20106700786116 L 105.04791467758096 129.87371873297377 L 107.24987466016466 127.4107367130066 L 109.41311107977523 124.83519419400434 L 111.88384674172741 121.71992395934447 L 114.29291487865578 118.52240868706785 L 116.96465301902515 114.8170530661476 L 120.17224712260483 110.19205901777661 L 124.39381157201953 103.91864331567149 L 130.5699207920442 94.73546456439917 L 133.158137548532 91.05234875328506 L 135.29109870034145 88.17517697125547 L 137.02441754805554 85.98853053797605 L 138.57543504773872 84.1859360343399 L 139.93919275188432 82.75658640613153 L 141.11133086378516 81.67738100151178 L 142.18443090653915 80.84657976509148 L 143.0812540895359 80.30800333460591 L 143.75255098516305 80.04339333379733 L 144 80 L 143.71596573459712 79.94665865733899 L 143.21205379808882 79.75499367390167 L 142.45867276407984 79.33563727141357 L 141.5697709815095 78.69851697289917 L 140.4840368115075 77.76448789333347 L 139.2049412374053 76.49431297280746 L 137.73657339956497 74.85968598302799 L 136.08362752280726 72.84425129797 L 134.25138790944533 70.44427579962874 L 132.012426523718 67.33824980084962 L 129.3128475376505 63.4245553727647 L 124.68258681558225 56.514302874510804 L 119.54301523778136 48.8881645533348 L 116.30521274411241 44.25441926621505 L 113.61117631752289 40.55788401866664 L 111.18400804642124 37.37991227603797 L 108.69652582976204 34.29524269713488 L 106.5200371835702 31.754605207600605 L 104.30586211339525 29.33431540255077 L 102.05714708316906 27.057137367841335 L 100.15913725793949 25.284471030952375 L 98.24123279807847 23.638058742054852 L 96.30532644373646 22.128944859053803 L 94.35332870076041 20.767313281171937 L 92.38716595525503 19.562400224909197 L 90.80534046161497 18.71686015588938 L 89.21669008334413 17.980595514414887 L 87.62221824607164 17.356836792677854 L 86.02293205238489 16.848326728221053 L 84.41984164572199 16.457305225453638 L 82.81395957234335 16.185497038337928 L 81.20630014178612 16.034102283977575 L 79.5978787862042 16.003789840812487 L 77.98971141899975 16.094693668795628 L 76.38281379315043 16.30641207238523 L 74.7782008596379 16.638009910524886 L 73.17688612638334 17.088023741099363 L 71.57988101809389 17.654469870741877 L 69.98819423742523 18.334855264419502 L 68.4028311278632 19.126191253035472 L 66.82479303872758 20.025009961447836 L 64.86406419048161 21.293654728318018 L 62.918272683495964 22.71544250788196 L 60.989338779069776 24.28074804271577 L 59.07916610208365 25.979032357339378 L 57.18963976235193 27.798932992138845 L 54.95208532241901 30.126281267026258 L 52.75012533983535 32.5892632869934 L 50.58688892022475 35.164805805995684 L 48.11615325827257 38.28007604065556 L 45.7070851213442 41.47759131293216 L 43.035346980974886 45.182946933852364 L 39.827752877395156 49.807940982223414 L 35.60618842798047 56.08135668432851 L 29.430079207955814 65.26453543560083 L 26.841862451467982 68.94765124671494 L 24.708901299658542 71.82482302874453 L 22.97558245194446 74.01146946202395 L 21.424564952261278 75.8140639656601 L 20.060807248115694 77.24341359386847 L 18.88866913621485 78.32261899848822 L 17.81556909346086 79.15342023490852 L 16.918745910464118 79.6919966653941 L 16.24744901483696 79.95660666620267 L 16 80" stroke-linecap="round" stroke-linejoin="round" stroke-miterlimit="10" stroke-width="2.5" stroke-opacity="0.9" stroke-dasharray=""/></g></g></g><g id="labels-b875fd44"/></g></svg>
