<svg version="1.1" xmlns="http://www.w3.org/2000/svg" xmlns:xlink="http://www.w3.org/1999/xlink" width="320" height="320"><defs/><g transform="scale(2,2)"><g id="background-fbd3c10a"><rect fill="white" stroke="none" x="0" y="0" width="160" height="160" class="dcg-svg-background"/></g><g id="background-images-fbd3c10a"/><g id="graphpaper-fbd3c10a"><g id="grid-fbd3c10a"><g><path fill="none" stroke="rgb(0,0,0)" class="dcg-svg-minor-gridline" paint-order="fill stroke markers" d=" M 16.5 0 L 16.5 160" stroke-opacity="0.2" stroke-miterlimit="10" stroke-dasharray=""/><path fill="none" stroke="rgb(0,0,0)" class="dcg-svg-minor-gridline" paint-order="fill stroke markers" d=" M 48.5 0 L 48.5 160" stroke-opacity="0.2" stroke-miterlimit="10" stroke-dasharray=""/><path fill="none" stroke="rgb(0,0,0)" class="dcg-svg-minor-gridline" paint-order="fill stroke markers" d=" M 112.5 0 L 112.5 160" stroke-opacity="0.2" stroke-miterlimit="10" stroke-dasharray=""/><path fill="none" stroke="rgb(0,0,0)" class="dcg-svg-minor-gridline" paint-order="fill stroke markers" d=" M 144.5 0 L 144.5 160" stroke-opacity="0.2" stroke-miterlimit="10" stroke-dasharray=""/><path fill="none" stroke="rgb(0,0,0)" class="dcg-svg-minor-gridline" paint-order="fill stroke markers" d=" M 0 144.5 L 160 144.5" stroke-opacity="0.2" stroke-miterlimit="10" stroke-dasharray=""/><path fill="none" stroke="rgb(0,0,0)" class="dcg-svg-minor-gridline" paint-order="fill stroke markers" d=" M 0 112.5 L 160 112.5" stroke-opacity="0.2" stroke-miterlimit="10" stroke-dasharray=""/><path fill="none" stroke="rgb(0,0,0)" class="dcg-svg-minor-gridline" paint-order="fill stroke markers" d=" M 0 48.5 L 160 48.5" stroke-opacity="0.2" stroke-miterlimit="10" stroke-dasharray=""/><path fill="none" stroke="rgb(0,0,0)" class="dcg-svg-minor-gridline" paint-order="fill stroke markers" d=" M 0 16.5 L 160 16.5" stroke-opacity="0.2" stroke-miterlimit="10" stroke-dasharray=""/></g></g><g id="axis-fbd3c10a"><g id="yaxis-fbd3c10a"><title>Y axis</title><g><path fill="none" stroke="rgb(0,0,0)" class="dcg-svg-axis-line" paint-order="fill stroke markers" d=" M 80 0 L 80 160" stroke-opacity="0.9" stroke-miterlimit="10" stroke-width="1.5" stroke-dasharray=""/></g></g><g id="xaxis-fbd3c10a"><title>X axis</title><g><path fill="none" stroke="rgb(0,0,0)" class="dcg-svg-axis-line" paint-order="fill stroke markers" d=" M 0 80 L 160 80" stroke-opacity="0.9" stroke-miterlimit="10" stroke-width="1.5" stroke-dasharray=""/></g></g><g><g class="dcg-svg-axis-value"><text fill="none" stroke="#ffffff" font-family="Arial" font-size="10px" font-style="normal" font-weight="normal" text-decoration="normal" x="72.21923828125" y="92.72" text-anchor="middle" stroke-miterlimit="2" stroke-width="3" stroke-dasharray="">0</text><text fill="#000000" stroke="none" font-family="Arial" font-size="10px" font-style="normal" font-weight="normal" text-decoration="normal" x="72.21923828125" y="92.72" text-anchor="middle">0</text></g></g></g></g><g id="expressions-fbd3c10a"><g id="sketch-fbd3c10a"><title>Expression 1</title><path fill="#c74440" stroke="none" paint-order="stroke fill markers" d="" fill-opacity="0.4"/><g><path fill="none" stroke="#c74440" class="dcg-svg-curve" paint-order="fill stroke markers" d=" M 16 80 L 16 80 L 16.04547375100229 87.22280863190285 L 16.181830383320708 94.35332870076043 L 16.36474941459207 100.1591372579395 L 16.610468755414324 105.78601188567438 L 16.918745910464125 111.1840080464213 L 17.2892766474082 116.30521274411242 L 17.721695297143903 121.10416980330146 L 18.11190478320416 124.68258681558225 L 18.54120411667565 128.00710845634944 L 19.009322142898 131.05884413046854 L 19.5159631884925 133.82045326708283 L 20.060807248115694 136.27624385219565 L 20.494304903151914 137.90893135782528 L 20.94894464831266 139.35648981341836 L 21.424564952261278 140.61429151966365 L 21.92099682936852 141.67831541056063 L 22.43806389975225 142.54515990836438 L 22.97558245194446 143.21205379808882 L 23.533361508162997 143.67686508680322 L 23.91637247719273 143.8737106194094 L 24.308239701150356 143.9797881141312 L 24.708901299658542 143.99494682904424 L 25.118294003606266 143.91916522278513 L 25.53635316513973 143.75255098516303 L 26.17954673291718 143.33287159056965 L 26.841862451467996 142.7107233525918 L 27.523065003171062 141.88809521679582 L 28.22291236000337 140.86761704288983 L 28.941155869531464 139.6525511973255 L 29.67754034325639 138.24678212383972 L 30.687152462349495 136.08362752280723 L 31.727911632889352 133.60179456269708 L 32.799160489076876 130.81538551346145 L 33.90022240717398 127.7402333071476 L 35.31741318441776 123.5170162382348 L 36.77870028025444 118.90753905245475 L 38.588418459555584 112.92413016201635 L 40.77394856620952 105.41746500062591 L 44.69466427978047 91.59716887213679 L 48.46545014090935 78.39167389162637 L 50.94460801666901 69.9881942374252 L 53.11451338164442 62.918272683495886 L 54.95208532241906 57.189639762351916 L 56.81437653090908 51.66347321351029 L 58.32077310430137 47.42134939197619 L 59.84086274206051 43.36434396194616 L 61.37368532299062 39.51550963756003 L 62.91827268349598 35.896716263209655 L 64.0838472214493 33.34600784502962 L 65.25507669269821 30.944447564201596 L 66.43154496498852 28.699712968263867 L 67.61283404474496 26.618980248756998 L 68.79852422558234 24.70890129965852 L 69.98819423742523 22.975582451944433 L 71.18142139618318 21.42456495226125 L 72.37778175392835 20.06080724811568 L 73.57685024952225 18.888669136214844 L 74.77820085963793 17.9118978246332 L 75.98140675012395 17.133615953363915 L 76.78436363649476 16.726288336773507 L 77.5878283091242 16.408876126719463 L 78.39167389162641 16.181830383320715 L 79.19577344746544 16.045473751002277 L 80 16 L 80.80422655253457 16.045473751002305 L 81.6083261083736 16.181830383320715 L 82.41217169087582 16.408876126719463 L 83.21563636350527 16.726288336773507 L 84.01859324987606 17.133615953363943 L 85.2217991403621 17.91189782463323 L 86.42314975047776 18.888669136214872 L 87.62221824607167 20.060807248115708 L 88.81857860381685 21.424564952261278 L 90.01180576257478 22.97558245194446 L 91.20147577441767 24.708901299658578 L 92.38716595525507 26.618980248757055 L 93.56845503501151 28.699712968263896 L 94.74492330730182 30.944447564201653 L 95.91615277855072 33.346007845029675 L 97.08172731650404 35.89671626320971 L 98.6263146770094 39.515509637560044 L 100.1591372579395 43.36434396194619 L 101.67922689569866 47.421349391976264 L 103.18562346909093 51.663473213510315 L 105.04791467758096 57.18963976235199 L 106.88548661835561 62.918272683496 L 109.05539198333099 69.98819423742523 L 111.53454985909066 78.3916738916264 L 114.63176013612005 89.21669008334413 L 120.48449036243997 109.76966899695735 L 122.6247595157921 116.96465301902512 L 124.39381157201953 122.62475951579215 L 125.81993491339719 126.92834215824385 L 127.20083951092313 130.81538551346145 L 128.27208836711065 133.60179456269708 L 129.31284753765053 136.08362752280732 L 130.3224596567436 138.24678212383975 L 131.05884413046857 139.65255119732552 L 131.77708763999664 140.86761704288983 L 132.47693499682896 141.88809521679585 L 133.158137548532 142.7107233525918 L 133.82045326708283 143.33287159056965 L 134.4636468348603 143.75255098516305 L 134.88170599639375 143.91916522278513 L 135.29109870034145 143.99494682904424 L 135.69176029884966 143.9797881141312 L 136.08362752280726 143.8737106194094 L 136.46663849183702 143.67686508680322 L 137.02441754805554 143.21205379808882 L 137.56193610024775 142.54515990836438 L 138.0790031706315 141.6783154105606 L 138.57543504773872 140.61429151966362 L 139.05105535168735 139.3564898134183 L 139.50569509684811 137.90893135782522 L 139.93919275188432 136.2762438521956 L 140.35139429714332 134.46364683486024 L 140.86761704288983 131.77708763999664 L 141.34539449711207 128.79632070473264 L 141.78442488532954 125.53828334139426 L 142.18443090653915 122.02148836818918 L 142.62917787683023 117.29219069878886 L 143.01211740986915 112.23188490468866 L 143.33287159056965 106.88548661835559 L 143.59112387328054 101.30045084947108 L 143.7866193941779 95.52635077090603 L 143.91916522278513 89.61443770372844 L 143.99494682904424 82.41217169087575 L 143.9797881141312 75.17908444621227 L 143.8737106194094 68.00759586651361 L 143.71596573459712 62.14456921348926 L 143.49534088412656 56.440028628180585 L 143.21205379808882 50.94460801666901 L 142.86638404663609 45.707085121344164 L 142.45867276407984 40.7739485662095 L 141.9893223122324 36.18898522056388 L 141.5697709815095 32.799160489076854 L 141.11133086378516 29.67754034325634 L 140.61429151966362 26.84186245146799 L 140.07896688984795 24.30823970115034 L 139.6525511973255 22.614973645744897 L 139.2049412374053 21.10516176858428 L 138.7362960437748 19.783630786929564 L 138.24678212383972 18.654605502887932 L 137.73657339956497 17.721695297143896 L 137.20585114568087 16.98788259013085 L 136.65480392527712 16.45551330753193 L 136.08362752280726 16.126289380590606 L 135.69176029884963 16.020211885868804 L 135.29109870034145 16.00505317095576 L 134.88170599639375 16.080834777214875 L 134.46364683486027 16.247449014836974 L 133.8204532670828 16.667128409430347 L 133.158137548532 17.2892766474082 L 132.47693499682893 18.11190478320418 L 131.77708763999664 19.132382957110195 L 131.05884413046854 20.347448802674506 L 130.3224596567436 21.753217876160306 L 129.3128475376505 23.916372477192738 L 128.27208836711063 26.398205437302977 L 127.20083951092313 29.18461448653855 L 126.09977759282603 32.25976669285237 L 124.68258681558225 36.48298376176518 L 123.22129971974555 41.092460947545305 L 121.41158154044442 47.07586983798362 L 119.22605143379049 54.58253499937406 L 115.30533572021955 68.4028311278632 L 111.53454985909066 81.6083261083736 L 109.05539198333099 90.01180576257477 L 106.88548661835559 97.08172731650409 L 105.04791467758095 102.81036023764807 L 103.18562346909093 108.33652678648969 L 101.67922689569863 112.57865060802379 L 100.15913725793949 116.63565603805387 L 98.62631467700936 120.48449036244006 L 97.08172731650404 124.10328373679029 L 95.91615277855068 126.65399215497041 L 94.74492330730179 129.0555524357984 L 93.56845503501151 131.3002870317361 L 92.38716595525503 133.381019751243 L 91.20147577441764 135.29109870034148 L 90.01180576257478 137.02441754805554 L 88.8185786038168 138.57543504773878 L 87.62221824607164 139.93919275188432 L 86.42314975047775 141.11133086378516 L 85.22179914036205 142.0881021753668 L 84.01859324987603 142.86638404663609 L 83.21563636350523 143.2737116632265 L 82.41217169087578 143.59112387328054 L 81.60832610837356 143.8181696166793 L 80.80422655253457 143.9545262489977 L 80 144 L 79.19577344746543 143.9545262489977 L 78.3916738916264 143.81816961667928 L 77.58782830912418 143.59112387328054 L 76.78436363649473 143.2737116632265 L 75.98140675012391 142.86638404663606 L 74.7782008596379 142.08810217536677 L 73.57685024952225 141.11133086378516 L 72.3777817539283 139.93919275188426 L 71.18142139618315 138.57543504773872 L 69.98819423742523 137.02441754805557 L 68.7985242255823 135.29109870034142 L 67.61283404474493 133.38101975124295 L 66.4315449649885 131.3002870317361 L 65.25507669269817 129.05555243579832 L 64.08384722144928 126.6539921549703 L 62.918272683495964 124.1032837367903 L 61.37368532299059 120.48449036243994 L 59.840862742060466 116.63565603805375 L 58.32077310430131 112.57865060802365 L 56.81437653090908 108.33652678648971 L 54.95208532241901 102.81036023764793 L 53.11451338164437 97.08172731650394 L 50.94460801666901 90.0118057625748 L 48.46545014090935 81.60832610837363 L 45.36823986387995 70.78330991665588 L 39.51550963756004 50.23033100304268 L 37.3752404842079 43.03534698097489 L 35.60618842798047 37.375240484207865 L 34.1800650866028 33.07165784175615 L 32.799160489076876 29.18461448653855 L 31.727911632889352 26.39820543730292 L 30.68715246234948 23.91637247719271 L 29.677540343256375 21.75321787616025 L 28.94115586953145 20.347448802674478 L 28.22291236000337 19.132382957110167 L 27.523065003171034 18.111904783204125 L 26.841862451467982 17.2892766474082 L 26.17954673291718 16.667128409430347 L 25.5363531651397 16.247449014836945 L 25.11829400360623 16.080834777214875 L 24.708901299658542 16.00505317095576 L 24.308239701150356 16.020211885868804 L 23.91637247719273 16.126289380590606 L 23.533361508162983 16.323134913196782 L 22.97558245194446 16.787946201911183 L 22.438063899752237 17.454840091635646 L 21.920996829368512 18.3216845894394 L 21.424564952261278 19.385708480336348 L 20.94894464831264 20.64351018658175 L 20.494304903151907 22.091068642174776 L 20.060807248115694 23.72375614780435 L 19.648605702856663 25.536353165139815 L 19.132382957110174 28.222912360003363 L 18.65460550288794 31.203679295267364 L 18.215575114670465 34.46171665860578 L 17.81556909346086 37.97851163181086 L 17.37082212316978 42.707809301211185 L 16.98788259013085 47.768115095311344 L 16.66712840943034 53.1145133816444 L 16.408876126719456 58.69954915052904 L 16.21338060582208 64.47364922909397 L 16.080834777214882 70.38556229627167 L 16.00505317095577 77.58782830912432 L 16 80" stroke-linecap="round" stroke-linejoin="round" stroke-miterlimit="10" stroke-width="2.5" stroke-opacity="0.9" stroke-dasharray=""/></g></g></g><g id="labels-fbd3c10a"/></g></svg>