<svg version="1.1" xmlns="http://www.w3.org/2000/svg" xmlns:xlink="http://www.w3.org/1999/xlink" width="320" height="320"><defs/><g transform="scale(2,2)"><g id="background-6debac7d"><rect fill="white" stroke="none" x="0" y="0" width="160" height="160" class="dcg-svg-background"/></g><g id="background-images-6debac7d"/><g id="graphpaper-6debac7d"><g id="grid-6debac7d"><g><path fill="none" stroke="rgb(0,0,0)" class="dcg-svg-minor-gridline" paint-order="fill stroke markers" d=" M 10.5 0 L 10.5 160" stroke-opacity="0.2" stroke-miterlimit="10" stroke-dasharray=""/><path fill="none" stroke="rgb(0,0,0)" class="dcg-svg-minor-gridline" paint-order="fill stroke markers" d=" M 33.5 0 L 33.5 160" stroke-opacity="0.2" stroke-miterlimit="10" stroke-dasharray=""/><path fill="none" stroke="rgb(0,0,0)" class="dcg-svg-minor-gridline" paint-order="fill stroke markers" d=" M 56.5 0 L 56.5 160" stroke-opacity="0.2" stroke-miterlimit="10" stroke-dasharray=""/><path fill="none" stroke="rgb(0,0,0)" class="dcg-svg-minor-gridline" paint-order="fill stroke markers" d=" M 103.5 0 L 103.5 160" stroke-opacity="0.2" stroke-miterlimit="10" stroke-dasharray=""/><path fill="none" stroke="rgb(0,0,0)" class="dcg-svg-minor-gridline" paint-order="fill stroke markers" d=" M 126.5 0 L 126.5 160" stroke-opacity="0.2" stroke-miterlimit="10" stroke-dasharray=""/><path fill="none" stroke="rgb(0,0,0)" class="dcg-svg-minor-gridline" paint-order="fill stroke markers" d=" M 149.5 0 L 149.5 160" stroke-opacity="0.2" stroke-miterlimit="10" stroke-dasharray=""/><path fill="none" stroke="rgb(0,0,0)" class="dcg-svg-minor-gridline" paint-order="fill stroke markers" d=" M 0 149.5 L 160 149.5" stroke-opacity="0.2" stroke-miterlimit="10" stroke-dasharray=""/><path fill="none" stroke="rgb(0,0,0)" class="dcg-svg-minor-gridline" paint-order="fill stroke markers" d=" M 0 126.5 L 160 126.5" stroke-opacity="0.2" stroke-miterlimit="10" stroke-dasharray=""/><path fill="none" stroke="rgb(0,0,0)" class="dcg-svg-minor-gridline" paint-order="fill stroke markers" d=" M 0 103.5 L 160 103.5" stroke-opacity="0.2" stroke-miterlimit="10" stroke-dasharray=""/><path fill="none" stroke="rgb(0,0,0)" class="dcg-svg-minor-gridline" paint-order="fill stroke markers" d=" M 0 56.5 L 160 56.5" stroke-opacity="0.2" stroke-miterlimit="10" stroke-dasharray=""/><path fill="none" stroke="rgb(0,0,0)" class="dcg-svg-minor-gridline" paint-order="fill stroke markers" d=" M 0 33.5 L 160 33.5" stroke-opacity="0.2" stroke-miterlimit="10" stroke-dasharray=""/><path fill="none" stroke="rgb(0,0,0)" class="dcg-svg-minor-gridline" paint-order="fill stroke markers" d=" M 0 10.5 L 160 10.5" stroke-opacity="0.2" stroke-miterlimit="10" stroke-dasharray=""/></g></g><g id="axis-6debac7d"><g id="yaxis-6debac7d"><title>Y axis</title><g><path fill="none" stroke="rgb(0,0,0)" class="dcg-svg-axis-line" paint-order="fill stroke markers" d=" M 80 0 L 80 160" stroke-opacity="0.9" stroke-miterlimit="10" stroke-width="1.5" stroke-dasharray=""/></g></g><g id="xaxis-6debac7d"><title>X axis</title><g><path fill="none" stroke="rgb(0,0,0)" class="dcg-svg-axis-line" paint-order="fill stroke markers" d=" M 0 80 L 160 80" stroke-opacity="0.9" stroke-miterlimit="10" stroke-width="1.5" stroke-dasharray=""/></g></g><g><g class="dcg-svg-axis-value"><text fill="none" stroke="#ffffff" font-family="Arial" font-size="10px" font-style="normal" font-weight="normal" text-decoration="normal" x="72.21578417251717" y="92.72870326609842" text-anchor="middle" stroke-miterlimit="2" stroke-width="3" stroke-dasharray="">0</text><text fill="#000000" stroke="none" font-family="Arial" font-size="10px" font-style="normal" font-weight="normal" text-decoration="normal" x="72.21578417251717" y="92.72870326609842" text-anchor="middle">0</text></g></g></g></g><g id="expressions-6debac7d"><g id="sketch-6debac7d"><title>Expression 2</title><g><path fill="none" stroke="#2d70b3" class="dcg-svg-curve" paint-order="fill stroke markers" d=" M 149.05468473861822 80.00870326609842 L 149.05468473861822 80.00870326609842 L 149.0038101449685 78.27399629006592 L 148.8513836522976 76.54476378353618 L 148.5979960623867 74.82645187705349 L 148.24462850736137 73.12445018252441 L 147.7926471644072 71.44406393119323 L 147.24379589820734 69.79048658584416 L 146.6001868726537 68.16877308111208 L 145.86428918484924 66.58381384221782 L 145.03891558558308 65.04030972802737 L 144.12720736126167 63.542748039087826 L 143.1326174626542 62.09537972525018 L 142.0588919756996 60.702197920680504 L 140.91005003897303 59.36691792652944 L 139.69036232116414 58.092958753314164 L 138.40432818003262 56.88342632621671 L 137.05665163172685 55.74109844706696 L 135.65221626604375 54.66841159680989 L 134.19605924912696 53.66744965181478 L 132.69334456021915 52.73993457652517 L 131.14933561336792 51.887219143735024 L 129.56936741841355 51.11028172227425 L 127.95881843813882 50.40972316015804 L 126.32308230012255 49.78576577936755 L 124.6675395225996 49.23825448645286 L 122.9975294134876 48.766659991147534 L 121.31832230069439 48.370084113230035 L 119.63509224987595 48.04726714602508 L 117.95289042298518 47.79659723327629 L 116.27661922725075 47.61612170470774 L 114.61100739967658 47.503560304488374 L 112.96058616677871 47.45632023608559 L 110.92546636854225 47.48470104125042 L 108.92868435022065 47.604367011874984 L 106.97747516114276 47.80845699184712 L 105.07837093384167 48.08956100462244 L 103.23715354978982 48.43979154970438 L 101.4588142484036 48.85085893430599 L 99.41361443011381 49.41229906914619 L 97.47049899452284 50.033600395937015 L 95.33749820940702 50.81326123078152 L 93.35139201621895 51.62821061470663 L 91.0125211242189 52.688309270451896 L 88.04089225782744 54.149491601829084 L 84.96045588547418 55.65382488257414 L 83.61072866691474 56.2233539933229 L 82.50645533521492 56.600224473169234 L 81.60142849177169 56.825234436737176 L 80.72102886472558 56.9552812509278 L 79.99654589126717 56.98932365031473 L 79.27206291780878 56.9552812509278 L 78.53974968465 56.85359063164897 L 77.63974132263657 56.644165246182254 L 76.70425646633758 56.34313393302405 L 75.55137160784157 55.883723757175275 L 73.94349379416091 55.14036313548817 L 66.64169976631541 51.62821061470663 L 64.65559357312735 50.81326123078152 L 62.52259278801154 50.03360039593704 L 60.579477352420525 49.41229906914619 L 58.53427753413078 48.85085893430599 L 56.75593823274455 48.439791549704395 L 54.9147208486927 48.08956100462244 L 53.015616621391594 47.80845699184711 L 51.064407432313715 47.604367011874984 L 49.06762541399216 47.48470104125042 L 47.032505615755646 47.45632023608559 L 45.38208438285781 47.503560304488346 L 43.716472555283616 47.61612170470774 L 42.04020135954918 47.79659723327629 L 40.35799953265842 48.04726714602508 L 38.67476948183997 48.370084113230035 L 36.99556236904676 48.76665999114752 L 35.32555225993475 49.23825448645286 L 33.670009482411814 49.78576577936755 L 32.03427334439556 50.40972316015804 L 30.423724364120826 51.11028172227425 L 28.843756169166443 51.88721914373501 L 27.29974722231521 52.73993457652517 L 25.7970325334074 53.66744965181478 L 24.340875516490616 54.668411596809875 L 22.936440150807485 55.74109844706696 L 21.58876360250175 56.88342632621671 L 20.302729461370223 58.092958753314164 L 19.08304174356136 59.36691792652944 L 17.934199806834755 60.702197920680504 L 16.86047431988016 62.09537972525018 L 15.865884421272717 63.542748039087826 L 14.954176196951279 65.04030972802738 L 14.128802597685105 66.58381384221782 L 13.392904909880663 68.16877308111206 L 12.749295884327033 69.79048658584416 L 12.200444618127149 71.44406393119323 L 11.748463275172984 73.12445018252441 L 11.395095720147662 74.82645187705347 L 11.141708130236726 76.54476378353618 L 10.989281637565863 78.27399629006591 L 10.938407043916117 80.00870326609841 L 10.989281637565863 81.74341024213092 L 11.141708130236726 83.47264274866065 L 11.395095720147662 85.19095465514336 L 11.748463275172984 86.89295634967242 L 12.200444618127149 88.5733426010036 L 12.749295884327024 90.22691994635265 L 13.392904909880654 91.84863345108477 L 14.128802597685105 93.43359268997902 L 14.95417619695129 94.97709680416948 L 15.865884421272717 96.47465849310902 L 16.860474319880172 97.92202680694666 L 17.934199806834755 99.31520861151634 L 19.08304174356134 100.65048860566739 L 20.302729461370234 101.9244477788827 L 21.58876360250177 103.13398020598015 L 22.936440150807467 104.27630808512987 L 24.340875516490577 105.34899493538694 L 25.79703253340738 106.34995688038205 L 27.299747222315162 107.27747195567164 L 28.843756169166404 108.13018738846182 L 30.423724364120776 108.90712480992256 L 32.03427334439552 109.60768337203878 L 33.67000948241179 110.23164075282928 L 35.32555225993473 110.77915204574396 L 36.995562369046745 111.25074654104931 L 38.674769481839945 111.6473224189668 L 40.3579995326584 111.97013938617174 L 42.04020135954916 112.22080929892056 L 43.716472555283595 112.40128482748912 L 45.38208438285779 112.51384622770848 L 47.032505615755625 112.56108629611126 L 49.06762541399214 112.53270549094643 L 51.064407432313715 112.41303952032186 L 53.01561662139159 112.20894954034972 L 54.91472084869265 111.92784552757439 L 56.75593823274456 111.57761498249243 L 58.534277534130766 111.16654759789084 L 60.57947735242056 110.60510746305063 L 62.52259278801152 109.98380613625983 L 64.65559357312733 109.20414530141531 L 66.64169976631544 108.38919591749018 L 68.98057065831543 107.32909726174496 L 71.95219952470691 105.86791493036776 L 75.03263589706017 104.3635816496227 L 76.38236311561961 103.79405253887394 L 77.48663644731943 103.41718205902762 L 78.39166329076268 103.19217209545965 L 79.27206291780878 103.06212528126905 L 79.99654589126717 103.02808288188211 L 80.72102886472557 103.06212528126905 L 81.45334209788433 103.16381590054789 L 82.35335045989778 103.37324128601459 L 83.28883531619677 103.67427259917278 L 84.44172017469278 104.13368277502157 L 86.04959798837345 104.87704339670867 L 93.35139201621891 108.38919591749018 L 95.33749820940702 109.20414530141531 L 97.47049899452281 109.9838061362598 L 99.4136144301138 110.60510746305063 L 101.45881424840358 111.16654759789084 L 103.23715354978978 111.57761498249243 L 105.07837093384167 111.92784552757439 L 106.97747516114276 112.20894954034972 L 108.92868435022062 112.41303952032186 L 110.9254663685422 112.53270549094643 L 112.96058616677867 112.56108629611126 L 114.61100739967654 112.51384622770847 L 116.27661922725073 112.40128482748912 L 117.95289042298518 112.22080929892056 L 119.63509224987598 111.97013938617174 L 121.31832230069435 111.64732241896681 L 122.9975294134876 111.25074654104932 L 124.6675395225996 110.77915204574397 L 126.32308230012259 110.23164075282926 L 127.95881843813885 109.60768337203879 L 129.56936741841355 108.90712480992258 L 131.14933561336792 108.13018738846182 L 132.69334456021917 107.27747195567167 L 134.196059249127 106.34995688038205 L 135.65221626604372 105.34899493538697 L 137.05665163172685 104.27630808512987 L 138.4043281800326 103.13398020598018 L 139.6903623211641 101.92444777888271 L 140.910050038973 100.6504886056674 L 142.0588919756996 99.31520861151634 L 143.13261746265417 97.92202680694672 L 144.12720736126164 96.47465849310905 L 145.03891558558306 94.9770968041695 L 145.86428918484924 93.43359268997902 L 146.6001868726537 91.84863345108475 L 147.24379589820734 90.22691994635271 L 147.7926471644072 88.57334260100363 L 148.24462850736137 86.89295634967243 L 148.5979960623867 85.19095465514336 L 148.8513836522976 83.47264274866069 L 149.0038101449685 81.74341024213095 L 149.05468473861822 80.00870326609844" stroke-linecap="round" stroke-linejoin="round" stroke-miterlimit="10" stroke-width="2.5" stroke-opacity="0.9" stroke-dasharray=""/></g></g></g><g id="labels-6debac7d"/></g></svg>