<svg version="1.1" xmlns="http://www.w3.org/2000/svg" xmlns:xlink="http://www.w3.org/1999/xlink" width="320" height="320"><defs/><g transform="scale(2,2)"><g id="background-ee3c05b8"><rect fill="white" stroke="none" x="0" y="0" width="160" height="160" class="dcg-svg-background"/></g><g id="background-images-ee3c05b8"/><g id="graphpaper-ee3c05b8"><g id="grid-ee3c05b8"><g><path fill="none" stroke="rgb(0,0,0)" class="dcg-svg-minor-gridline" paint-order="fill stroke markers" d=" M 5.5 0 L 5.5 160" stroke-opacity="0.2" stroke-miterlimit="10" stroke-dasharray=""/><path fill="none" stroke="rgb(0,0,0)" class="dcg-svg-minor-gridline" paint-order="fill stroke markers" d=" M 30.5 0 L 30.5 160" stroke-opacity="0.2" stroke-miterlimit="10" stroke-dasharray=""/><path fill="none" stroke="rgb(0,0,0)" class="dcg-svg-minor-gridline" paint-order="fill stroke markers" d=" M 55.5 0 L 55.5 160" stroke-opacity="0.2" stroke-miterlimit="10" stroke-dasharray=""/><path fill="none" stroke="rgb(0,0,0)" class="dcg-svg-minor-gridline" paint-order="fill stroke markers" d=" M 105.5 0 L 105.5 160" stroke-opacity="0.2" stroke-miterlimit="10" stroke-dasharray=""/><path fill="none" stroke="rgb(0,0,0)" class="dcg-svg-minor-gridline" paint-order="fill stroke markers" d=" M 130.5 0 L 130.5 160" stroke-opacity="0.2" stroke-miterlimit="10" stroke-dasharray=""/><path fill="none" stroke="rgb(0,0,0)" class="dcg-svg-minor-gridline" paint-order="fill stroke markers" d=" M 155.5 0 L 155.5 160" stroke-opacity="0.2" stroke-miterlimit="10" stroke-dasharray=""/><path fill="none" stroke="rgb(0,0,0)" class="dcg-svg-minor-gridline" paint-order="fill stroke markers" d=" M 0 155.5 L 160 155.5" stroke-opacity="0.2" stroke-miterlimit="10" stroke-dasharray=""/><path fill="none" stroke="rgb(0,0,0)" class="dcg-svg-minor-gridline" paint-order="fill stroke markers" d=" M 0 130.5 L 160 130.5" stroke-opacity="0.2" stroke-miterlimit="10" stroke-dasharray=""/><path fill="none" stroke="rgb(0,0,0)" class="dcg-svg-minor-gridline" paint-order="fill stroke markers" d=" M 0 105.5 L 160 105.5" stroke-opacity="0.2" stroke-miterlimit="10" stroke-dasharray=""/><path fill="none" stroke="rgb(0,0,0)" class="dcg-svg-minor-gridline" paint-order="fill stroke markers" d=" M 0 55.5 L 160 55.5" stroke-opacity="0.2" stroke-miterlimit="10" stroke-dasharray=""/><path fill="none" stroke="rgb(0,0,0)" class="dcg-svg-minor-gridline" paint-order="fill stroke markers" d=" M 0 30.5 L 160 30.5" stroke-opacity="0.2" stroke-miterlimit="10" stroke-dasharray=""/><path fill="none" stroke="rgb(0,0,0)" class="dcg-svg-minor-gridline" paint-order="fill stroke markers" d=" M 0 5.5 L 160 5.5" stroke-opacity="0.2" stroke-miterlimit="10" stroke-dasharray=""/></g></g><g id="axis-ee3c05b8"><g id="yaxis-ee3c05b8"><title>Y axis</title><g><path fill="none" stroke="rgb(0,0,0)" class="dcg-svg-axis-line" paint-order="fill stroke markers" d=" M 80 0 L 80 160" stroke-opacity="0.9" stroke-miterlimit="10" stroke-width="1.5" stroke-dasharray=""/></g></g><g id="xaxis-ee3c05b8"><title>X axis</title><g><path fill="none" stroke="rgb(0,0,0)" class="dcg-svg-axis-line" paint-order="fill stroke markers" d=" M 0 80 L 160 80" stroke-opacity="0.9" stroke-miterlimit="10" stroke-width="1.5" stroke-dasharray=""/></g></g><g><g class="dcg-svg-axis-value"><text fill="none" stroke="#ffffff" font-family="Arial" font-size="10px" font-style="normal" font-weight="normal" text-decoration="normal" x="72.21923828125" y="92.72" text-anchor="middle" stroke-miterlimit="2" stroke-width="3" stroke-dasharray="">0</text><text fill="#000000" stroke="none" font-family="Arial" font-size="10px" font-style="normal" font-weight="normal" text-decoration="normal" x="72.21923828125" y="92.72" text-anchor="middle">0</text></g></g></g></g><g id="expressions-ee3c05b8"><g id="sketch-ee3c05b8"><title>Expression 3</title><g><path fill="none" stroke="#388c46" class="dcg-svg-curve" paint-order="fill stroke markers" d=" M 80 80 L 80 80 L 80.08528390983847 79.96052102667832 L 80.2049646201235 79.80993471552647 L 80.2692465283474 79.58729163556917 L 80.2608766928622 79.3288099283637 L 80.17026718655373 79.04218906809807 L 79.99218634566348 78.75643465365376 L 79.69832844431205 78.47084517643806 L 79.31721258980905 78.24330749623348 L 78.90954198993572 78.10210264971178 L 78.45432015083772 78.03296710218007 L 77.99143016815506 78.04128713722093 L 77.49368469441309 78.1304888566922 L 76.99881148472201 78.30062601067543 L 76.49687251395684 78.56183399794315 L 76.0027645392882 78.91996607701431 L 75.51038379134809 79.40414714812157 L 75.08501428857382 79.9691178275988 L 74.75399606655658 80.5624882732454 L 74.4991983112253 81.1933358309421 L 74.32113629475863 81.8451746700551 L 74.21240473993772 82.54780865125132 L 74.18128890896779 83.246638733921 L 74.22565065501381 83.97750993009147 L 74.35166614702862 84.73279908736376 L 74.56477609782213 85.5039577118709 L 74.86956130290565 86.2815806218936 L 75.26962444215025 87.05549035309478 L 75.76748005995346 87.81483675149398 L 76.36445458890277 88.54821096389232 L 77.06059820504127 89.243772813669 L 77.85461020021512 89.8893903356776 L 78.68161666168082 90.43607872163793 L 79.52087895390285 90.88647235908661 L 80.42520814439919 91.2736525078742 L 81.39022094213736 91.58991691201807 L 82.33036415165682 91.8124745802949 L 83.31304951340887 91.96268439792995 L 84.33296637239897 92.03527709375848 L 85.38423955269927 92.02535487810495 L 86.36998252544676 91.93994634566084 L 87.37136993358882 91.77835234442747 L 88.38274543417114 91.53785925950545 L 89.3981408820923 91.21616115948098 L 90.41130504651484 90.8113908245245 L 91.41573519485094 90.32214878835723 L 92.40471140892888 89.74753014080507 L 93.37133347625375 89.08714884678818 L 94.39205877036049 88.26911727605936 L 95.3685254443032 87.3501758217705 L 96.2913860865269 86.3321004049318 L 97.08226306192596 85.31399187952442 L 97.81308430459157 84.21740063720232 L 98.4767931277149 83.04556203909073 L 99.01610812796892 81.91817404972305 L 99.48919145822833 80.73507347596582 L 99.89115447568699 79.49997547644466 L 100.21730413260974 78.21699183445102 L 100.44232150861633 77.02507501717244 L 100.59922929827317 75.80155077859752 L 100.68513417606783 74.55019799701735 L 100.69734623149955 73.27502454963388 L 100.63339581504772 71.98025672575322 L 100.49104985530055 70.67032745366815 L 100.26832756607249 69.34986336622589 L 99.96351546342504 68.02367073551936 L 99.57518161394971 66.69672031254213 L 99.10218903747564 65.37413111298603 L 98.54370818952307 64.06115319561196 L 97.89922845133603 62.76314948476457 L 97.16856855818469 61.48557669360929 L 96.35188589982572 60.23396540951995 L 95.44968463053758 59.01389940771563 L 94.4628225299968 57.830994263715326 L 93.26850793944926 56.56708064681098 L 91.9733807625155 55.363685416065266 L 90.72383626967577 54.33868731318621 L 89.39725306168776 53.37439808932329 L 87.99639416327025 52.476230758077804 L 86.52438786287611 51.64948621059699 L 85.15902251046396 50.978740775216096 L 83.74288262815367 50.372033218303585 L 82.27887540159591 49.83277236622368 L 80.77012276909498 49.364240664854876 L 79.21995626688154 48.969581165884875 L 77.63191110584108 48.65178470175198 L 76.00971948512856 48.41367729380781 L 74.35730315065281 48.25790783823308 L 72.6787652089753 48.18693611404865 L 70.9783812097333 48.2030211572299 L 69.26058951225515 48.30821004445056 L 67.74684749425123 48.474783171035625 L 66.22645525752127 48.71205291391324 L 64.70265458975035 49.020953904066445 L 63.17875801517111 49.402274418715535 L 61.65814227730989 49.85665189826747 L 60.144241560863804 50.38456874988891 L 58.64054046517024 50.9863484521387 L 56.93904134937291 51.7647399112067 L 55.260795141182584 52.63978485584536 L 53.611169745115525 53.61116974511546 L 51.9955634437523 54.67828782520438 L 50.419389080366074 55.84023511266615 L 48.88805790533445 57.095807222860174 L 47.406963131174415 58.443497067727236 L 45.98146324264148 59.881493444675826 L 44.616865109813126 61.407680535884865 L 43.318406953425416 63.019638334765105 L 42.09124121294182 64.7146440136728 L 41.079925668711404 66.26352978243258 L 40.1303691676284 67.87147657290886 L 39.245800492226614 69.53610006468386 L 38.42936049300362 71.25484642167486 L 37.684093425414886 73.02499531047114 L 37.012938377639266 74.84366335306628 L 36.4187208105992 76.70780801204242 L 35.90414423173085 78.61423190521712 L 35.47178202396419 80.55958754570163 L 35.12406945128262 82.5403825022645 L 34.863295862092926 84.55298497382957 L 34.71059530171625 86.3005383919131 L 34.62459137185031 88.06625076882295 L 34.60644524838921 89.84761102903818 L 34.657224829876434 91.64204592165306 L 34.77790168014276 93.44692343789461 L 34.96934809433451 95.25955637166557 L 35.23233429480842 97.07720601873044 L 35.567525763217 98.89708600987527 L 35.9754807149422 100.71636627308817 L 36.45664772185812 102.53217711953408 L 37.01136348921386 104.34161344782831 L 37.63985079222553 106.14173906084784 L 38.34221657775338 107.92959108906706 L 39.11845023621598 109.70218451415658 L 39.96842204865638 111.45651678634287 L 40.89188181362982 113.1895725287979 L 42.061629217743175 115.18054594420866 L 43.33008903430055 117.13363844540194 L 44.69623063775995 119.04404893620637 L 46.158793231631805 120.90699187023321 L 47.71628513688 122.71770816419865 L 49.36698359333443 124.471476207908 L 51.10893508142702 126.16362294695031 L 52.939956170448376 127.78953501368325 L 54.85763489838409 129.34466988167753 L 56.8593326872233 130.82456701842787 L 58.639781963654414 132.02985385830226 L 60.47792763696914 133.1739637359862 L 62.37171968112642 134.25426812610766 L 64.31899212303803 135.26820488524876 L 66.31746508648051 136.21328325276085 L 68.36474704818785 137.08708879363883 L 70.45833730473151 137.88728827456282 L 72.59562864842287 138.61163446423376 L 74.7739102501057 139.25797084916638 L 76.99037074633688 139.82423625615382 L 79.24210152808166 140.30846937268257 L 81.52610022768522 140.70881315665883 L 83.83927440051589 141.02351912690474 L 86.1784453973103 141.25095152599297 L 88.54035242289298 141.38959134711735 L 90.92165677658734 141.43804021683871 L 93.31894626928027 141.39502412570295 L 95.72873981175938 141.2593969989007 L 98.14749216860096 141.03014409932598 L 100.57159887154998 140.70638525559164 L 102.99740128600871 140.2873779077779 L 105.4211918239315 139.7725199639185 L 107.83921929610825 139.16135246047526 L 110.2476943965203 138.4535620203085 L 112.64279531115861 137.64898310192282 L 115.02067344340855 136.74760003405137 L 117.37745924783572 135.74954882993958 L 119.70926816394567 134.6551187759964 L 122.01220664123778 133.4647537898043 L 124.28237824663873 132.1790535428092 L 126.51588984517561 130.7987743433561 L 128.70885784453458 129.32482977608805 L 130.8574144939546 127.75829109409202 L 132.95771422772327 126.10038736054304 L 135.00594004336523 124.35250533698706 L 136.99830990446878 122.5161891157837 L 138.93108315794746 120.59313949463561 L 140.8005669554144 118.58521309153112 L 142.60312266823973 116.49442119883857 L 144.3351722857654 114.32292837570964 L 145.99320478608158 112.07305077836918 L 147.57378246870817 109.74725422829546 L 149.07354723848317 107.34815201872799 L 150.4892268299377 104.87850246037124 L 151.60243076778937 102.76865926551368 L 152.6532432686543 100.61358935662986 L 153.63992534138447 98.41511129401684 L 154.56079006641158 96.17510817580866 L 155.41420493281382 93.89552618058556 L 156.19859413582188 91.57837302685572 L 156.91244083185083 89.2257163504309 L 157.55428934816206 86.83968200083024 L 158.12274734429303 84.42245225793872 L 158.6164879224224 81.97626397025135 L 158.95683520871486 80.00000000000004" stroke-linecap="round" stroke-linejoin="round" stroke-miterlimit="10" stroke-width="2.5" stroke-opacity="0.9" stroke-dasharray=""/></g></g></g><g id="labels-ee3c05b8"/></g></svg>