<svg version="1.1" xmlns="http://www.w3.org/2000/svg" xmlns:xlink="http://www.w3.org/1999/xlink" width="320" height="320"><defs/><g transform="scale(2,2)"><g id="background-fdd809fe"><rect fill="white" stroke="none" x="0" y="0" width="160" height="160" class="dcg-svg-background"/></g><g id="background-images-fdd809fe"/><g id="graphpaper-fdd809fe"><g id="grid-fdd809fe"><g><path fill="none" stroke="rgb(0,0,0)" class="dcg-svg-minor-gridline" paint-order="fill stroke markers" d=" M 16.5 0 L 16.5 160" stroke-opacity="0.2" stroke-miterlimit="10" stroke-dasharray=""/><path fill="none" stroke="rgb(0,0,0)" class="dcg-svg-minor-gridline" paint-order="fill stroke markers" d=" M 48.5 0 L 48.5 160" stroke-opacity="0.2" stroke-miterlimit="10" stroke-dasharray=""/><path fill="none" stroke="rgb(0,0,0)" class="dcg-svg-minor-gridline" paint-order="fill stroke markers" d=" M 112.5 0 L 112.5 160" stroke-opacity="0.2" stroke-miterlimit="10" stroke-dasharray=""/><path fill="none" stroke="rgb(0,0,0)" class="dcg-svg-minor-gridline" paint-order="fill stroke markers" d=" M 144.5 0 L 144.5 160" stroke-opacity="0.2" stroke-miterlimit="10" stroke-dasharray=""/><path fill="none" stroke="rgb(0,0,0)" class="dcg-svg-minor-gridline" paint-order="fill stroke markers" d=" M 0 144.5 L 160 144.5" stroke-opacity="0.2" stroke-miterlimit="10" stroke-dasharray=""/><path fill="none" stroke="rgb(0,0,0)" class="dcg-svg-minor-gridline" paint-order="fill stroke markers" d=" M 0 112.5 L 160 112.5" stroke-opacity="0.2" stroke-miterlimit="10" stroke-dasharray=""/><path fill="none" stroke="rgb(0,0,0)" class="dcg-svg-minor-gridline" paint-order="fill stroke markers" d=" M 0 48.5 L 160 48.5" stroke-opacity="0.2" stroke-miterlimit="10" stroke-dasharray=""/><path fill="none" stroke="rgb(0,0,0)" class="dcg-svg-minor-gridline" paint-order="fill stroke markers" d=" M 0 16.5 L 160 16.5" stroke-opacity="0.2" stroke-miterlimit="10" stroke-dasharray=""/></g></g><g id="axis-fdd809fe"><g id="yaxis-fdd809fe"><title>Y axis</title><g><path fill="none" stroke="rgb(0,0,0)" class="dcg-svg-axis-line" paint-order="fill stroke markers" d=" M 80 0 L 80 160" stroke-opacity="0.9" stroke-miterlimit="10" stroke-width="1.5" stroke-dasharray=""/></g></g><g id="xaxis-fdd809fe"><title>X axis</title><g><path fill="none" stroke="rgb(0,0,0)" class="dcg-svg-axis-line" paint-order="fill stroke markers" d=" M 0 80 L 160 80" stroke-opacity="0.9" stroke-miterlimit="10" stroke-width="1.5" stroke-dasharray=""/></g></g><g><g class="dcg-svg-axis-value"><text fill="none" stroke="#ffffff" font-family="Arial" font-size="10px" font-style="normal" font-weight="normal" text-decoration="normal" x="72.21923828125" y="92.72000000000023" text-anchor="middle" stroke-miterlimit="2" stroke-width="3" stroke-dasharray="">0</text><text fill="#000000" stroke="none" font-family="Arial" font-size="10px" font-style="normal" font-weight="normal" text-decoration="normal" x="72.21923828125" y="92.72000000000023" text-anchor="middle">0</text></g></g></g></g><g id="expressions-fdd809fe"><g id="sketch-fdd809fe"><title>Expression 1</title><path fill="#c74440" stroke="none" paint-order="stroke fill markers" d="" fill-opacity="0.4"/><g><path fill="none" stroke="#c74440" class="dcg-svg-curve" paint-order="fill stroke markers" d=" M 80 144.00000000000023 L 80 144.00000000000023 L 81.40732006992033 143.95358647629453 L 82.81395957234335 143.8145029616623 L 84.41984164572197 143.5426947745466 L 86.02293205238492 143.15167327177915 L 87.62221824607167 142.64316320732237 L 89.21669008334413 142.01940448558534 L 90.80534046161497 141.28313984411085 L 92.58436445538689 140.32440315237776 L 94.3533287007604 139.2326867188283 L 96.30532644373646 137.87105514094642 L 98.24123279807847 136.36194125794538 L 100.1591372579395 134.71552896904782 L 102.24578156614638 132.75910061977788 L 104.30586211339528 130.66568459744946 L 106.33691895072697 128.45200248221846 L 108.51666703212138 125.92050229658851 L 110.83223514250979 123.06736895457469 L 113.26830992772543 119.90035631013589 L 115.97333618253637 116.20957570283451 L 118.90753905245475 112.03507360674749 L 122.47456905167735 106.78777675581179 L 132.012426523718 92.66175019915059 L 134.35778561685225 89.41240213806248 L 136.2762438521956 86.91277892751683 L 137.90893135782525 84.94007541706561 L 139.35648981341834 83.3469764769586 L 140.61429151966365 82.11575888361328 L 141.7316747812991 81.1758856341271 L 142.7107233525918 80.50977587866366 L 143.46982784707603 80.13563648302016 L 143.984525083967 80.00068048521842 L 144 80.00000000000023 L 143.71596573459712 79.94665865733921 L 143.1802888956684 79.74012710152876 L 142.45867276407984 79.3356372714138 L 141.5697709815095 78.6985169728994 L 140.4840368115075 77.7644878933337 L 139.28100806522025 76.57423025072679 L 137.90893135782525 75.05992458293484 L 136.37171935507223 73.20691980749221 L 134.5689705186619 70.87074623336473 L 132.47693499682893 67.99528177565881 L 129.8215873002895 64.17227744446683 L 125.81993491339719 58.22014542787447 L 119.54301523778139 48.88816455333506 L 116.30521274411241 44.25441926621528 L 113.61117631752292 40.5578840186669 L 111.18400804642127 37.379912276038226 L 108.87610140427807 34.511659884811834 L 106.70289367435298 31.96204912453038 L 104.49173967136575 29.530847521617034 L 102.43419649224057 27.42579417739995 L 100.34986456527429 25.456245422109447 L 98.43386470494524 23.796697330815505 L 96.49967284569982 22.273380425321534 L 94.54919780138538 20.89656870225221 L 92.78143875292204 19.790435923501548 L 91.0034624178822 18.816648113560035 L 89.21669008334413 17.980595514415114 L 87.62221824607164 17.35683679267808 L 86.02293205238492 16.84832672822131 L 84.41984164572196 16.457305225453865 L 82.81395957234335 16.185497038338156 L 81.20630014178612 16.034102283977802 L 80 16.000000000000227" stroke-linecap="round" stroke-linejoin="round" stroke-miterlimit="10" stroke-width="2.5" stroke-opacity="0.9" stroke-dasharray=""/></g></g></g><g id="labels-fdd809fe"/></g></svg>