<svg version="1.1" xmlns="http://www.w3.org/2000/svg" xmlns:xlink="http://www.w3.org/1999/xlink" width="800" height="800"><defs/><g transform="scale(2,2)"><g id="background-0500c212"><rect fill="white" stroke="none" x="0" y="0" width="400" height="400" class="dcg-svg-background"/></g><g id="background-images-0500c212"/><g id="graphpaper-0500c212"><g id="grid-0500c212"><g><path fill="none" stroke="rgb(0,0,0)" class="dcg-svg-minor-gridline" paint-order="fill stroke markers" d=" M 11.5 0 L 11.5 400" stroke-opacity="0.2" stroke-miterlimit="10" stroke-dasharray=""/><path fill="none" stroke="rgb(0,0,0)" class="dcg-svg-minor-gridline" paint-order="fill stroke markers" d=" M 49.5 0 L 49.5 400" stroke-opacity="0.2" stroke-miterlimit="10" stroke-dasharray=""/><path fill="none" stroke="rgb(0,0,0)" class="dcg-svg-minor-gridline" paint-order="fill stroke markers" d=" M 87.5 0 L 87.5 400" stroke-opacity="0.2" stroke-miterlimit="10" stroke-dasharray=""/><path fill="none" stroke="rgb(0,0,0)" class="dcg-svg-minor-gridline" paint-order="fill stroke markers" d=" M 125.5 0 L 125.5 400" stroke-opacity="0.2" stroke-miterlimit="10" stroke-dasharray=""/><path fill="none" stroke="rgb(0,0,0)" class="dcg-svg-minor-gridline" paint-order="fill stroke markers" d=" M 163.5 0 L 163.5 400" stroke-opacity="0.2" stroke-miterlimit="10" stroke-dasharray=""/><path fill="none" stroke="rgb(0,0,0)" class="dcg-svg-minor-gridline" paint-order="fill stroke markers" d=" M 239.5 0 L 239.5 400" stroke-opacity="0.2" stroke-miterlimit="10" stroke-dasharray=""/><path fill="none" stroke="rgb(0,0,0)" class="dcg-svg-minor-gridline" paint-order="fill stroke markers" d=" M 277.5 0 L 277.5 400" stroke-opacity="0.2" stroke-miterlimit="10" stroke-dasharray=""/><path fill="none" stroke="rgb(0,0,0)" class="dcg-svg-minor-gridline" paint-order="fill stroke markers" d=" M 315.5 0 L 315.5 400" stroke-opacity="0.2" stroke-miterlimit="10" stroke-dasharray=""/><path fill="none" stroke="rgb(0,0,0)" class="dcg-svg-minor-gridline" paint-order="fill stroke markers" d=" M 353.5 0 L 353.5 400" stroke-opacity="0.2" stroke-miterlimit="10" stroke-dasharray=""/><path fill="none" stroke="rgb(0,0,0)" class="dcg-svg-minor-gridline" paint-order="fill stroke markers" d=" M 391.5 0 L 391.5 400" stroke-opacity="0.2" stroke-miterlimit="10" stroke-dasharray=""/><path fill="none" stroke="rgb(0,0,0)" class="dcg-svg-minor-gridline" paint-order="fill stroke markers" d=" M 0 386.5 L 400 386.5" stroke-opacity="0.2" stroke-miterlimit="10" stroke-dasharray=""/><path fill="none" stroke="rgb(0,0,0)" class="dcg-svg-minor-gridline" paint-order="fill stroke markers" d=" M 0 348.5 L 400 348.5" stroke-opacity="0.2" stroke-miterlimit="10" stroke-dasharray=""/><path fill="none" stroke="rgb(0,0,0)" class="dcg-svg-minor-gridline" paint-order="fill stroke markers" d=" M 0 272.5 L 400 272.5" stroke-opacity="0.2" stroke-miterlimit="10" stroke-dasharray=""/><path fill="none" stroke="rgb(0,0,0)" class="dcg-svg-minor-gridline" paint-order="fill stroke markers" d=" M 0 234.5 L 400 234.5" stroke-opacity="0.2" stroke-miterlimit="10" stroke-dasharray=""/><path fill="none" stroke="rgb(0,0,0)" class="dcg-svg-minor-gridline" paint-order="fill stroke markers" d=" M 0 196.5 L 400 196.5" stroke-opacity="0.2" stroke-miterlimit="10" stroke-dasharray=""/><path fill="none" stroke="rgb(0,0,0)" class="dcg-svg-minor-gridline" paint-order="fill stroke markers" d=" M 0 158.5 L 400 158.5" stroke-opacity="0.2" stroke-miterlimit="10" stroke-dasharray=""/><path fill="none" stroke="rgb(0,0,0)" class="dcg-svg-minor-gridline" paint-order="fill stroke markers" d=" M 0 120.5 L 400 120.5" stroke-opacity="0.2" stroke-miterlimit="10" stroke-dasharray=""/><path fill="none" stroke="rgb(0,0,0)" class="dcg-svg-minor-gridline" paint-order="fill stroke markers" d=" M 0 83.5 L 400 83.5" stroke-opacity="0.2" stroke-miterlimit="10" stroke-dasharray=""/><path fill="none" stroke="rgb(0,0,0)" class="dcg-svg-minor-gridline" paint-order="fill stroke markers" d=" M 0 45.5 L 400 45.5" stroke-opacity="0.2" stroke-miterlimit="10" stroke-dasharray=""/><path fill="none" stroke="rgb(0,0,0)" class="dcg-svg-minor-gridline" paint-order="fill stroke markers" d=" M 0 7.5 L 400 7.5" stroke-opacity="0.2" stroke-miterlimit="10" stroke-dasharray=""/><path fill="none" stroke="rgb(0,0,0)" class="dcg-svg-major-gridline" paint-order="fill stroke markers" d=" M 49.5 0 L 49.5 400" stroke-opacity="0.2500000000000001" stroke-miterlimit="10" stroke-dasharray=""/><path fill="none" stroke="rgb(0,0,0)" class="dcg-svg-major-gridline" paint-order="fill stroke markers" d=" M 353.5 0 L 353.5 400" stroke-opacity="0.2500000000000001" stroke-miterlimit="10" stroke-dasharray=""/><path fill="none" stroke="rgb(0,0,0)" class="dcg-svg-major-gridline" paint-order="fill stroke markers" d=" M 0 159 L 400 159" stroke-opacity="0.2500000000000001" stroke-miterlimit="10" stroke-dasharray=""/><path fill="none" stroke="rgb(0,0,0)" class="dcg-svg-major-gridline" paint-order="fill stroke markers" d=" M 0 7 L 400 7" stroke-opacity="0.2500000000000001" stroke-miterlimit="10" stroke-dasharray=""/></g></g><g id="axis-0500c212"><g id="yaxis-0500c212"><title>Y axis</title><g><path fill="none" stroke="rgb(0,0,0)" class="dcg-svg-axis-line" paint-order="fill stroke markers" d=" M 201 0 L 201 400" stroke-opacity="0.9" stroke-miterlimit="10" stroke-width="1.5" stroke-dasharray=""/></g></g><g id="xaxis-0500c212"><title>X axis</title><g><path fill="none" stroke="rgb(0,0,0)" class="dcg-svg-axis-line" paint-order="fill stroke markers" d=" M 0 311 L 400 311" stroke-opacity="0.9" stroke-miterlimit="10" stroke-width="1.5" stroke-dasharray=""/></g></g><g><g class="dcg-svg-axis-value"><text fill="none" stroke="#ffffff" font-family="Arial" font-size="14px" font-style="normal" font-weight="normal" text-decoration="normal" x="192.41886461710814" y="326.54790757231575" text-anchor="middle" stroke-miterlimit="2" stroke-width="3" stroke-dasharray="">0</text><text fill="#000000" stroke="none" font-family="Arial" font-size="14px" font-style="normal" font-weight="normal" text-decoration="normal" x="192.41886461710814" y="326.54790757231575" text-anchor="middle">0</text></g><g class="dcg-svg-axis-value"><text fill="none" stroke="#ffffff" font-family="Arial" font-size="14px" font-style="normal" font-weight="normal" text-decoration="normal" x="47.17218263541926" y="326.54790757231575" text-anchor="middle" stroke-miterlimit="2" stroke-width="3" stroke-dasharray="">-2</text><text fill="#000000" stroke="none" font-family="Arial" font-size="14px" font-style="normal" font-weight="normal" text-decoration="normal" x="47.17218263541926" y="326.54790757231575" text-anchor="middle">-2</text></g><g class="dcg-svg-axis-value"><text fill="none" stroke="#ffffff" font-family="Arial" font-size="14px" font-style="normal" font-weight="normal" text-decoration="normal" x="353.12062472379705" y="326.54790757231575" text-anchor="middle" stroke-miterlimit="2" stroke-width="3" stroke-dasharray="">2</text><text fill="#000000" stroke="none" font-family="Arial" font-size="14px" font-style="normal" font-weight="normal" text-decoration="normal" x="353.12062472379705" y="326.54790757231575" text-anchor="middle">2</text></g><g class="dcg-svg-axis-value"><text fill="none" stroke="#ffffff" font-family="Arial" font-size="14px" font-style="normal" font-weight="normal" text-decoration="normal" x="192.41886461710814" y="162.73921387187687" text-anchor="middle" stroke-miterlimit="2" stroke-width="3" stroke-dasharray="">2</text><text fill="#000000" stroke="none" font-family="Arial" font-size="14px" font-style="normal" font-weight="normal" text-decoration="normal" x="192.41886461710814" y="162.73921387187687" text-anchor="middle">2</text></g><g class="dcg-svg-axis-value dcg-svg-offcenter-axis-value"><text fill="none" stroke="#ffffff" font-family="Arial" font-size="14px" font-style="normal" font-weight="normal" text-decoration="normal" x="192.41886461710814" y="13.808" text-anchor="middle" stroke-miterlimit="2" stroke-width="3" stroke-dasharray="">4</text><text fill="#000000" stroke="none" font-family="Arial" font-size="14px" font-style="normal" font-weight="normal" text-decoration="normal" x="192.41886461710814" y="13.808" text-anchor="middle">4</text></g></g></g></g><g id="expressions-0500c212"><g id="sketch-0500c212"><title>Expression 10</title><path fill="#2d70b3" stroke="none" paint-order="stroke fill markers" d="" fill-opacity="0.4"/><g><path fill="none" stroke="#2d70b3" class="dcg-svg-curve" paint-order="fill stroke markers" d=" M 0 104.41050082831168 L 0 104.41050082831168 L 400 104.41050082831168" stroke-linecap="round" stroke-linejoin="round" stroke-miterlimit="10" stroke-width="2.5" stroke-opacity="0.9" stroke-dasharray=""/></g></g><g id="sketch-0500c212"><title>Expression 11</title><path fill="#388c46" stroke="none" paint-order="stroke fill markers" d="" fill-opacity="0.4"/><g><path fill="none" stroke="#388c46" class="dcg-svg-curve" paint-order="fill stroke markers" d=" M 0 305.38884721557247 L 0 305.38884721557247 L 16.210937500000004 304.11480836331316 L 30.85937499999999 302.70455533757865 L 44.23828125000001 301.1557554305468 L 56.54296875000002 299.4690690691383 L 67.87109375 297.6549821277911 L 78.51562500000001 295.68510632239634 L 88.47656250000001 293.5739692063206 L 97.8515625 291.3172984566578 L 106.73828125 288.9048752070232 L 115.23437500000001 286.318813918017 L 123.33984375000001 283.56667052540104 L 131.0546875 280.65957422420513 L 138.4765625 277.5697403095562 L 145.703125 274.25651824254817 L 152.734375 270.715474081206 L 159.57031250000003 266.9435786281627 L 166.21093750000003 262.93937625513365 L 172.75390625 258.63615669474916 L 179.19921875 254.018564826733 L 185.54687500000003 249.0711402546891 L 191.6015625 243.95047079745274 L 197.36328125000003 238.68326143260558 L 202.92968750000003 233.20044141507267 L 208.30078125 227.51485680397963 L 213.47656250000003 221.64193322550082 L 218.45703125 215.5997006523992 L 223.33984375000003 209.2783318739355 L 228.125 202.67607566692013 L 232.81250000000003 195.79218425086887 L 237.40234375 188.62698252292532 L 241.89453125 181.18193463641722 L 246.2890625 173.45970722454416 L 250.68359375 165.27720095179245 L 254.98046875 156.80515644251022 L 259.27734375 147.83968279365823 L 263.4765625 138.573688118132 L 267.67578125 128.78063058898766 L 271.77734375 118.67779049605508 L 275.87890625 108.01401512334166 L 279.98046875 96.75815992285811 L 283.984375 85.1677522444715 L 287.98828125 72.94954545879244 L 291.9921875 60.0695345739299 L 295.99609375 46.4918727038899 L 300 32.1787713016389 L 304.00390625 17.090394988249443 L 307.91015625000006 1.582758953445989 L 309.60475502497616 -5.5" stroke-linecap="round" stroke-linejoin="round" stroke-miterlimit="10" stroke-width="2.5" stroke-opacity="0.9" stroke-dasharray=""/></g></g><g id="sketch-0500c212"><title>Expression 12</title><path fill="#6042a6" stroke="none" paint-order="stroke fill markers" d="" fill-opacity="0.4"/><g><path fill="none" stroke="#6042a6" class="dcg-svg-curve" paint-order="fill stroke markers" d=" M 93.01586059366137 -5.5 L 93.01586059366137 -5.5 L 94.140625 -0.7602233222530117 L 98.14453125 15.24535814542196 L 102.1484375 30.42853662603352 L 106.15234375000001 44.83156904567295 L 110.15625 58.4945410739665 L 114.25781250000001 71.76313688406123 L 118.359375 84.33377880419687 L 122.4609375 96.24318056350359 L 126.56249999999999 107.52612467770905 L 130.66406250000003 118.21556403471112 L 134.86328125000003 128.57723398241745 L 139.0625 138.38123832725813 L 143.26171875 147.6575906603039 L 147.55859375 156.63308604009868 L 151.85546875 165.11460071837953 L 156.25 173.30625351026845 L 160.64453125000003 181.03711293517642 L 165.13671875 188.49048299959685 L 169.7265625 195.66369408953076 L 174.4140625 202.5552804149993 L 179.19921875 209.1649167156844 L 184.08203125 215.4933516079497 L 189.0625 221.54233827252634 L 194.14062500000003 227.3145631630606 L 199.41406249999997 232.91376660250893 L 204.88281250000003 238.3237488683171 L 210.546875 243.5308243608661 L 216.40625 248.52378262950364 L 222.55859375 253.3676824007498 L 229.00390625 258.0382615439568 L 235.546875 262.3908609294905 L 242.28515625000003 266.4979688585719 L 249.12109375000003 270.30824180818337 L 256.15234375 273.88531464843277 L 263.37890625 277.2322473975339 L 270.80078125 280.35351911101156 L 278.515625 283.29019393041165 L 286.5234375 286.03857970786845 L 294.82421875 288.59741378614353 L 303.61328125 291.0184499057398 L 312.79296875 293.2649354737363 L 322.4609375 295.35481126336646 L 332.8125 297.31619341089 L 343.84765624999994 299.1325350949244 L 355.66406250000006 300.8058849550351 L 368.45703125000006 302.3466825708009 L 382.32421875 303.7481504354773 L 397.55859374999994 305.0195747199284 L 400 305.2006374428516" stroke-linecap="round" stroke-linejoin="round" stroke-miterlimit="10" stroke-width="2.5" stroke-opacity="0.9" stroke-dasharray=""/></g></g><g id="sketch-0500c212"><title>Expression 13</title><path fill="none" stroke="#000000" class="dcg-svg-point" paint-order="fill stroke markers" d=" M 125.30758417313871 104.31050082831172 L 125.30758417313871 104.5105008283117 L 125.5075841731387 104.5105008283117 L 125.5075841731387 104.31050082831172" stroke-linecap="round" stroke-linejoin="round" stroke-miterlimit="10" stroke-width="7.5" stroke-opacity="0.9" stroke-dasharray=""/></g><g id="sketch-0500c212"><title>Expression 14</title><path fill="none" stroke="#c74440" class="dcg-svg-point" paint-order="fill stroke markers" d=" M 201.21193102335815 234.73556072209632 L 201.21193102335815 234.9355607220963 L 201.41193102335814 234.9355607220963 L 201.41193102335814 234.73556072209632" stroke-linecap="round" stroke-linejoin="round" stroke-miterlimit="10" stroke-width="7.5" stroke-opacity="0.9" stroke-dasharray=""/></g><g id="sketch-0500c212"><title>Expression 15</title><path fill="none" stroke="#2d70b3" class="dcg-svg-point" paint-order="fill stroke markers" d=" M 277.1162778735776 104.31050082831172 L 277.1162778735776 104.5105008283117 L 277.31627787357763 104.5105008283117 L 277.31627787357763 104.31050082831172" stroke-linecap="round" stroke-linejoin="round" stroke-miterlimit="10" stroke-width="7.5" stroke-opacity="0.9" stroke-dasharray=""/></g></g><g id="labels-0500c212"/></g></svg>