<svg version="1.1" xmlns="http://www.w3.org/2000/svg" xmlns:xlink="http://www.w3.org/1999/xlink" width="800" height="800"><defs/><g transform="scale(2,2)"><g id="background-1f174599"><rect fill="white" stroke="none" x="0" y="0" width="400" height="400" class="dcg-svg-background"/></g><g id="background-images-1f174599"/><g id="graphpaper-1f174599"><g id="grid-1f174599"><g><path fill="none" stroke="rgb(0,0,0)" class="dcg-svg-minor-gridline" paint-order="fill stroke markers" d=" M 14.5 0 L 14.5 400" stroke-opacity="0.2" stroke-miterlimit="10" stroke-dasharray=""/><path fill="none" stroke="rgb(0,0,0)" class="dcg-svg-minor-gridline" paint-order="fill stroke markers" d=" M 31.5 0 L 31.5 400" stroke-opacity="0.2" stroke-miterlimit="10" stroke-dasharray=""/><path fill="none" stroke="rgb(0,0,0)" class="dcg-svg-minor-gridline" paint-order="fill stroke markers" d=" M 48.5 0 L 48.5 400" stroke-opacity="0.2" stroke-miterlimit="10" stroke-dasharray=""/><path fill="none" stroke="rgb(0,0,0)" class="dcg-svg-minor-gridline" paint-order="fill stroke markers" d=" M 65.5 0 L 65.5 400" stroke-opacity="0.2" stroke-miterlimit="10" stroke-dasharray=""/><path fill="none" stroke="rgb(0,0,0)" class="dcg-svg-minor-gridline" paint-order="fill stroke markers" d=" M 82.5 0 L 82.5 400" stroke-opacity="0.2" stroke-miterlimit="10" stroke-dasharray=""/><path fill="none" stroke="rgb(0,0,0)" class="dcg-svg-minor-gridline" paint-order="fill stroke markers" d=" M 99.5 0 L 99.5 400" stroke-opacity="0.2" stroke-miterlimit="10" stroke-dasharray=""/><path fill="none" stroke="rgb(0,0,0)" class="dcg-svg-minor-gridline" paint-order="fill stroke markers" d=" M 116.5 0 L 116.5 400" stroke-opacity="0.2" stroke-miterlimit="10" stroke-dasharray=""/><path fill="none" stroke="rgb(0,0,0)" class="dcg-svg-minor-gridline" paint-order="fill stroke markers" d=" M 133.5 0 L 133.5 400" stroke-opacity="0.2" stroke-miterlimit="10" stroke-dasharray=""/><path fill="none" stroke="rgb(0,0,0)" class="dcg-svg-minor-gridline" paint-order="fill stroke markers" d=" M 150.5 0 L 150.5 400" stroke-opacity="0.2" stroke-miterlimit="10" stroke-dasharray=""/><path fill="none" stroke="rgb(0,0,0)" class="dcg-svg-minor-gridline" paint-order="fill stroke markers" d=" M 167.5 0 L 167.5 400" stroke-opacity="0.2" stroke-miterlimit="10" stroke-dasharray=""/><path fill="none" stroke="rgb(0,0,0)" class="dcg-svg-minor-gridline" paint-order="fill stroke markers" d=" M 184.5 0 L 184.5 400" stroke-opacity="0.2" stroke-miterlimit="10" stroke-dasharray=""/><path fill="none" stroke="rgb(0,0,0)" class="dcg-svg-minor-gridline" paint-order="fill stroke markers" d=" M 201.5 0 L 201.5 400" stroke-opacity="0.2" stroke-miterlimit="10" stroke-dasharray=""/><path fill="none" stroke="rgb(0,0,0)" class="dcg-svg-minor-gridline" paint-order="fill stroke markers" d=" M 218.5 0 L 218.5 400" stroke-opacity="0.2" stroke-miterlimit="10" stroke-dasharray=""/><path fill="none" stroke="rgb(0,0,0)" class="dcg-svg-minor-gridline" paint-order="fill stroke markers" d=" M 235.5 0 L 235.5 400" stroke-opacity="0.2" stroke-miterlimit="10" stroke-dasharray=""/><path fill="none" stroke="rgb(0,0,0)" class="dcg-svg-minor-gridline" paint-order="fill stroke markers" d=" M 252.5 0 L 252.5 400" stroke-opacity="0.2" stroke-miterlimit="10" stroke-dasharray=""/><path fill="none" stroke="rgb(0,0,0)" class="dcg-svg-minor-gridline" paint-order="fill stroke markers" d=" M 269.5 0 L 269.5 400" stroke-opacity="0.2" stroke-miterlimit="10" stroke-dasharray=""/><path fill="none" stroke="rgb(0,0,0)" class="dcg-svg-minor-gridline" paint-order="fill stroke markers" d=" M 286.5 0 L 286.5 400" stroke-opacity="0.2" stroke-miterlimit="10" stroke-dasharray=""/><path fill="none" stroke="rgb(0,0,0)" class="dcg-svg-minor-gridline" paint-order="fill stroke markers" d=" M 303.5 0 L 303.5 400" stroke-opacity="0.2" stroke-miterlimit="10" stroke-dasharray=""/><path fill="none" stroke="rgb(0,0,0)" class="dcg-svg-minor-gridline" paint-order="fill stroke markers" d=" M 320.5 0 L 320.5 400" stroke-opacity="0.2" stroke-miterlimit="10" stroke-dasharray=""/><path fill="none" stroke="rgb(0,0,0)" class="dcg-svg-minor-gridline" paint-order="fill stroke markers" d=" M 354.5 0 L 354.5 400" stroke-opacity="0.2" stroke-miterlimit="10" stroke-dasharray=""/><path fill="none" stroke="rgb(0,0,0)" class="dcg-svg-minor-gridline" paint-order="fill stroke markers" d=" M 371.5 0 L 371.5 400" stroke-opacity="0.2" stroke-miterlimit="10" stroke-dasharray=""/><path fill="none" stroke="rgb(0,0,0)" class="dcg-svg-minor-gridline" paint-order="fill stroke markers" d=" M 388.5 0 L 388.5 400" stroke-opacity="0.2" stroke-miterlimit="10" stroke-dasharray=""/><path fill="none" stroke="rgb(0,0,0)" class="dcg-svg-minor-gridline" paint-order="fill stroke markers" d=" M 0 383.5 L 400 383.5" stroke-opacity="0.2" stroke-miterlimit="10" stroke-dasharray=""/><path fill="none" stroke="rgb(0,0,0)" class="dcg-svg-minor-gridline" paint-order="fill stroke markers" d=" M 0 366.5 L 400 366.5" stroke-opacity="0.2" stroke-miterlimit="10" stroke-dasharray=""/><path fill="none" stroke="rgb(0,0,0)" class="dcg-svg-minor-gridline" paint-order="fill stroke markers" d=" M 0 349.5 L 400 349.5" stroke-opacity="0.2" stroke-miterlimit="10" stroke-dasharray=""/><path fill="none" stroke="rgb(0,0,0)" class="dcg-svg-minor-gridline" paint-order="fill stroke markers" d=" M 0 332.5 L 400 332.5" stroke-opacity="0.2" stroke-miterlimit="10" stroke-dasharray=""/><path fill="none" stroke="rgb(0,0,0)" class="dcg-svg-minor-gridline" paint-order="fill stroke markers" d=" M 0 315.5 L 400 315.5" stroke-opacity="0.2" stroke-miterlimit="10" stroke-dasharray=""/><path fill="none" stroke="rgb(0,0,0)" class="dcg-svg-minor-gridline" paint-order="fill stroke markers" d=" M 0 298.5 L 400 298.5" stroke-opacity="0.2" stroke-miterlimit="10" stroke-dasharray=""/><path fill="none" stroke="rgb(0,0,0)" class="dcg-svg-minor-gridline" paint-order="fill stroke markers" d=" M 0 281.5 L 400 281.5" stroke-opacity="0.2" stroke-miterlimit="10" stroke-dasharray=""/><path fill="none" stroke="rgb(0,0,0)" class="dcg-svg-minor-gridline" paint-order="fill stroke markers" d=" M 0 264.5 L 400 264.5" stroke-opacity="0.2" stroke-miterlimit="10" stroke-dasharray=""/><path fill="none" stroke="rgb(0,0,0)" class="dcg-svg-minor-gridline" paint-order="fill stroke markers" d=" M 0 247.5 L 400 247.5" stroke-opacity="0.2" stroke-miterlimit="10" stroke-dasharray=""/><path fill="none" stroke="rgb(0,0,0)" class="dcg-svg-minor-gridline" paint-order="fill stroke markers" d=" M 0 230.5 L 400 230.5" stroke-opacity="0.2" stroke-miterlimit="10" stroke-dasharray=""/><path fill="none" stroke="rgb(0,0,0)" class="dcg-svg-minor-gridline" paint-order="fill stroke markers" d=" M 0 213.5 L 400 213.5" stroke-opacity="0.2" stroke-miterlimit="10" stroke-dasharray=""/><path fill="none" stroke="rgb(0,0,0)" class="dcg-svg-minor-gridline" paint-order="fill stroke markers" d=" M 0 179.5 L 400 179.5" stroke-opacity="0.2" stroke-miterlimit="10" stroke-dasharray=""/><path fill="none" stroke="rgb(0,0,0)" class="dcg-svg-minor-gridline" paint-order="fill stroke markers" d=" M 0 162.5 L 400 162.5" stroke-opacity="0.2" stroke-miterlimit="10" stroke-dasharray=""/><path fill="none" stroke="rgb(0,0,0)" class="dcg-svg-minor-gridline" paint-order="fill stroke markers" d=" M 0 145.5 L 400 145.5" stroke-opacity="0.2" stroke-miterlimit="10" stroke-dasharray=""/><path fill="none" stroke="rgb(0,0,0)" class="dcg-svg-minor-gridline" paint-order="fill stroke markers" d=" M 0 128.5 L 400 128.5" stroke-opacity="0.2" stroke-miterlimit="10" stroke-dasharray=""/><path fill="none" stroke="rgb(0,0,0)" class="dcg-svg-minor-gridline" paint-order="fill stroke markers" d=" M 0 111.5 L 400 111.5" stroke-opacity="0.2" stroke-miterlimit="10" stroke-dasharray=""/><path fill="none" stroke="rgb(0,0,0)" class="dcg-svg-minor-gridline" paint-order="fill stroke markers" d=" M 0 94.5 L 400 94.5" stroke-opacity="0.2" stroke-miterlimit="10" stroke-dasharray=""/><path fill="none" stroke="rgb(0,0,0)" class="dcg-svg-minor-gridline" paint-order="fill stroke markers" d=" M 0 77.5 L 400 77.5" stroke-opacity="0.2" stroke-miterlimit="10" stroke-dasharray=""/><path fill="none" stroke="rgb(0,0,0)" class="dcg-svg-minor-gridline" paint-order="fill stroke markers" d=" M 0 60.5 L 400 60.5" stroke-opacity="0.2" stroke-miterlimit="10" stroke-dasharray=""/><path fill="none" stroke="rgb(0,0,0)" class="dcg-svg-minor-gridline" paint-order="fill stroke markers" d=" M 0 43.5 L 400 43.5" stroke-opacity="0.2" stroke-miterlimit="10" stroke-dasharray=""/><path fill="none" stroke="rgb(0,0,0)" class="dcg-svg-minor-gridline" paint-order="fill stroke markers" d=" M 0 26.5 L 400 26.5" stroke-opacity="0.2" stroke-miterlimit="10" stroke-dasharray=""/><path fill="none" stroke="rgb(0,0,0)" class="dcg-svg-minor-gridline" paint-order="fill stroke markers" d=" M 0 9.5 L 400 9.5" stroke-opacity="0.2" stroke-miterlimit="10" stroke-dasharray=""/><path fill="none" stroke="rgb(0,0,0)" class="dcg-svg-major-gridline" paint-order="fill stroke markers" d=" M 82.5 0 L 82.5 400" stroke-opacity="0.2500000000000001" stroke-miterlimit="10" stroke-dasharray=""/><path fill="none" stroke="rgb(0,0,0)" class="dcg-svg-major-gridline" paint-order="fill stroke markers" d=" M 167.5 0 L 167.5 400" stroke-opacity="0.2500000000000001" stroke-miterlimit="10" stroke-dasharray=""/><path fill="none" stroke="rgb(0,0,0)" class="dcg-svg-major-gridline" paint-order="fill stroke markers" d=" M 252.5 0 L 252.5 400" stroke-opacity="0.2500000000000001" stroke-miterlimit="10" stroke-dasharray=""/><path fill="none" stroke="rgb(0,0,0)" class="dcg-svg-major-gridline" paint-order="fill stroke markers" d=" M 0 366 L 400 366" stroke-opacity="0.2500000000000001" stroke-miterlimit="10" stroke-dasharray=""/><path fill="none" stroke="rgb(0,0,0)" class="dcg-svg-major-gridline" paint-order="fill stroke markers" d=" M 0 281 L 400 281" stroke-opacity="0.2500000000000001" stroke-miterlimit="10" stroke-dasharray=""/><path fill="none" stroke="rgb(0,0,0)" class="dcg-svg-major-gridline" paint-order="fill stroke markers" d=" M 0 111 L 400 111" stroke-opacity="0.2500000000000001" stroke-miterlimit="10" stroke-dasharray=""/><path fill="none" stroke="rgb(0,0,0)" class="dcg-svg-major-gridline" paint-order="fill stroke markers" d=" M 0 26 L 400 26" stroke-opacity="0.2500000000000001" stroke-miterlimit="10" stroke-dasharray=""/></g></g><g id="axis-1f174599"><g id="yaxis-1f174599"><title>Y axis</title><g><path fill="none" stroke="rgb(0,0,0)" class="dcg-svg-axis-line" paint-order="fill stroke markers" d=" M 338 0 L 338 400" stroke-opacity="0.9" stroke-miterlimit="10" stroke-width="1.5" stroke-dasharray=""/></g></g><g id="xaxis-1f174599"><title>X axis</title><g><path fill="none" stroke="rgb(0,0,0)" class="dcg-svg-axis-line" paint-order="fill stroke markers" d=" M 0 196 L 400 196" stroke-opacity="0.9" stroke-miterlimit="10" stroke-width="1.5" stroke-dasharray=""/></g></g><g><g class="dcg-svg-axis-value"><text fill="none" stroke="#ffffff" font-family="Arial" font-size="14px" font-style="normal" font-weight="normal" text-decoration="normal" x="328.9055786349346" y="212.12760147366737" text-anchor="middle" stroke-miterlimit="2" stroke-width="3" stroke-dasharray="">0</text><text fill="#000000" stroke="none" font-family="Arial" font-size="14px" font-style="normal" font-weight="normal" text-decoration="normal" x="328.9055786349346" y="212.12760147366737" text-anchor="middle">0</text></g><g class="dcg-svg-axis-value"><text fill="none" stroke="#ffffff" font-family="Arial" font-size="14px" font-style="normal" font-weight="normal" text-decoration="normal" x="80.46759035368495" y="212.12760147366737" text-anchor="middle" stroke-miterlimit="2" stroke-width="3" stroke-dasharray="">-3</text><text fill="#000000" stroke="none" font-family="Arial" font-size="14px" font-style="normal" font-weight="normal" text-decoration="normal" x="80.46759035368495" y="212.12760147366737" text-anchor="middle">-3</text></g><g class="dcg-svg-axis-value"><text fill="none" stroke="#ffffff" font-family="Arial" font-size="14px" font-style="normal" font-weight="normal" text-decoration="normal" x="165.46759035368484" y="212.12760147366737" text-anchor="middle" stroke-miterlimit="2" stroke-width="3" stroke-dasharray="">-2</text><text fill="#000000" stroke="none" font-family="Arial" font-size="14px" font-style="normal" font-weight="normal" text-decoration="normal" x="165.46759035368484" y="212.12760147366737" text-anchor="middle">-2</text></g><g class="dcg-svg-axis-value"><text fill="none" stroke="#ffffff" font-family="Arial" font-size="14px" font-style="normal" font-weight="normal" text-decoration="normal" x="250.46759035368473" y="212.12760147366737" text-anchor="middle" stroke-miterlimit="2" stroke-width="3" stroke-dasharray="">-1</text><text fill="#000000" stroke="none" font-family="Arial" font-size="14px" font-style="normal" font-weight="normal" text-decoration="normal" x="250.46759035368473" y="212.12760147366737" text-anchor="middle">-1</text></g><g class="dcg-svg-axis-value"><text fill="none" stroke="#ffffff" font-family="Arial" font-size="14px" font-style="normal" font-weight="normal" text-decoration="normal" x="326.5745239474346" y="370.12760147366714" text-anchor="middle" stroke-miterlimit="2" stroke-width="3" stroke-dasharray="">-2</text><text fill="#000000" stroke="none" font-family="Arial" font-size="14px" font-style="normal" font-weight="normal" text-decoration="normal" x="326.5745239474346" y="370.12760147366714" text-anchor="middle">-2</text></g><g class="dcg-svg-axis-value"><text fill="none" stroke="#ffffff" font-family="Arial" font-size="14px" font-style="normal" font-weight="normal" text-decoration="normal" x="326.5745239474346" y="285.12760147366726" text-anchor="middle" stroke-miterlimit="2" stroke-width="3" stroke-dasharray="">-1</text><text fill="#000000" stroke="none" font-family="Arial" font-size="14px" font-style="normal" font-weight="normal" text-decoration="normal" x="326.5745239474346" y="285.12760147366726" text-anchor="middle">-1</text></g><g class="dcg-svg-axis-value"><text fill="none" stroke="#ffffff" font-family="Arial" font-size="14px" font-style="normal" font-weight="normal" text-decoration="normal" x="328.9055786349346" y="115.1276014736675" text-anchor="middle" stroke-miterlimit="2" stroke-width="3" stroke-dasharray="">1</text><text fill="#000000" stroke="none" font-family="Arial" font-size="14px" font-style="normal" font-weight="normal" text-decoration="normal" x="328.9055786349346" y="115.1276014736675" text-anchor="middle">1</text></g><g class="dcg-svg-axis-value"><text fill="none" stroke="#ffffff" font-family="Arial" font-size="14px" font-style="normal" font-weight="normal" text-decoration="normal" x="328.9055786349346" y="30.127601473667603" text-anchor="middle" stroke-miterlimit="2" stroke-width="3" stroke-dasharray="">2</text><text fill="#000000" stroke="none" font-family="Arial" font-size="14px" font-style="normal" font-weight="normal" text-decoration="normal" x="328.9055786349346" y="30.127601473667603" text-anchor="middle">2</text></g></g></g></g><g id="expressions-1f174599"><g id="sketch-1f174599"><title>Expression 16</title><path fill="#388c46" stroke="none" paint-order="stroke fill markers" d="" fill-opacity="0.4"/><g><path fill="none" stroke="#388c46" class="dcg-svg-curve" paint-order="fill stroke markers" d=" M 405.5 361.9075378311045 L 405.5 361.9075378311045 L 388.13914545710645 357.421875 L 363.485714046742 350.78125 L 339.86988029262744 344.140625 L 317.72438164173917 337.63020833333337 L 296.9893797055964 331.25 L 277.6062328634887 325 L 259.51749626247465 318.88020833333337 L 242.66692181738279 312.890625 L 226.99945821081118 307.03125 L 212.46125089312744 301.3020833333333 L 198.99964208246877 295.703125 L 186.56317076474218 290.234375 L 174.83039889554493 284.765625 L 164.05574552418165 279.42708333333337 L 154.19014317209837 274.21875 L 145.18572112851086 269.140625 L 136.78806034411446 264.0625 L 129.1893479441942 259.11458333333337 L 122.34410675350495 254.296875 L 116.04499058834668 249.47916666666666 L 110.58900965210799 244.921875 L 105.75685008339278 240.49479166666666 L 101.63019745009221 236.328125 L 98.13245861495132 232.42187499999997 L 95.0925893499483 228.64583333333331 L 92.47588338976455 225.00000000000003 L 90.24883123685099 221.48437499999997 L 88.37912016142826 218.09895833333334 L 86.8356342014865 214.84375 L 85.5884541627856 211.71874999999997 L 84.57105353584936 208.59375000000003 L 83.81166226152652 205.59895833333337 L 83.26330103724449 202.60416666666663 L 82.93624828730785 199.73958333333334 L 82.80227407086792 196.87499999999997 L 82.86137838792479 194.01041666666669 L 83.11356123847833 191.14583333333331 L 83.55882262252861 188.28125000000003 L 84.23076560065674 185.28645833333334 L 85.1137386288257 182.29166666666663 L 86.2077417070355 179.29687499999997 L 87.57430247715811 176.171875 L 89.2421433656641 172.91666666666666 L 91.15931087283838 169.66145833333334 L 93.41765075738299 166.27604166666666 L 96.04827898130766 162.76041666666669 L 99.08350827439189 159.11458333333334 L 102.55684813418462 155.33854166666666 L 106.64072668254153 151.30208333333334 L 111.25845721917561 147.13541666666666 L 116.6123870601826 142.70833333333337 L 122.78389641389592 138.02083333333337 L 129.66558154060866 133.203125 L 137.3017228477962 128.25520833333331 L 145.51390837475506 123.30729166666669 L 154.54118631584893 118.22916666666669 L 164.1752255161339 113.15104166666663 L 174.68658905457355 107.94270833333331 L 186.1231476419522 102.60416666666669 L 198.5339687568236 97.13541666666669 L 211.64848932022446 91.66666666666669 L 225.80429140621618 86.06770833333331 L 241.05283602889193 80.33854166666663 L 257.4467809701145 74.47916666666663 L 275.0399807795161 68.48958333333331 L 293.887486774499 62.36979166666663 L 314.0455470402344 56.11979166666663 L 335.57160642966363 49.739583333333314 L 358.055478957369 43.359375 L 381.9855394363826 36.84895833333337 L 405.5 30.71001424996728" stroke-linecap="round" stroke-linejoin="round" stroke-miterlimit="10" stroke-width="2.5" stroke-opacity="0.9" stroke-dasharray=""/></g></g><g id="sketch-1f174599"><title>Expression 17</title><path fill="#6042a6" stroke="none" paint-order="stroke fill markers" d="" fill-opacity="0.4"/><g><path fill="none" stroke="#6042a6" class="dcg-svg-curve" paint-order="fill stroke markers" d=" M -5.5 329.82562665539535 L -5.5 329.82562665539535 L 16.927920912110128 324.34895833333337 L 44.05775641883706 317.4479166666667 L 69.5866495664145 310.67708333333337 L 93.57683227886233 304.03645833333337 L 116.08933971243059 297.52604166666663 L 137.18401025559942 291.1458333333333 L 156.91948552907962 284.89583333333337 L 175.35321038581264 278.7760416666667 L 192.5414329109698 272.78645833333337 L 208.53920442195317 266.92708333333337 L 223.72915768845127 261.06770833333337 L 237.80046600695198 255.33854166666666 L 250.80578715931813 249.73958333333331 L 262.7965821596428 244.27083333333331 L 273.82311525424956 238.93229166666666 L 283.9344539216923 233.72395833333334 L 293.4075164453442 228.515625 L 302.0292121562111 223.4375 L 309.84621499730787 218.48958333333331 L 317.08717361863336 213.54166666666663 L 323.58407560384876 208.72395833333331 L 329.38120136042954 204.03645833333334 L 334.38154669303367 199.60937499999997 L 338.79381412216657 195.3125 L 342.5429401949289 191.27604166666669 L 345.70312451303647 187.49999999999997 L 348.4359967313902 183.85416666666666 L 350.77506634753905 180.33854166666669 L 352.7526460912624 176.953125 L 354.39985192457016 173.69791666666669 L 355.7466030417025 170.57291666666666 L 356.86357474707006 167.44791666666666 L 357.7183883048897 164.453125 L 358.3621718126684 161.45833333333334 L 358.7804980511671 158.59375 L 359.0057457561691 155.72916666666669 L 359.0379149276744 152.86458333333334 L 358.87700556568296 150.00000000000003 L 358.52301767019475 147.13541666666666 L 357.97595124120977 144.27083333333337 L 357.19757571610455 141.27604166666669 L 356.2081701409585 138.28125 L 354.9507545914241 135.15625 L 353.46355963012496 132.03125 L 351.6700581258102 128.77604166666669 L 349.54033088423944 125.390625 L 347.04326194340297 121.875 L 344.1465385735214 118.22916666666669 L 340.81665127704565 114.453125 L 337.01889378865707 110.546875 L 332.57222125855895 106.38020833333331 L 327.55874573426047 102.08333333333331 L 321.76670532654487 97.52604166666663 L 315.1123262915397 92.70833333333337 L 307.91182223100344 87.890625 L 299.94824526205116 82.94270833333337 L 291.4086240733276 77.99479166666669 L 282.04529374252786 72.91666666666669 L 271.8115803266372 67.70833333333331 L 260.6596131148713 62.36979166666663 L 248.83705702953526 57.03125 L 236.0308238435854 51.5625 L 222.19064931069826 45.963541666666686 L 207.2650724167807 40.23437500000006 L 191.2014353799698 34.37499999999994 L 174.32998009867373 28.515625 L 156.24865860830798 22.526041666666686 L 136.9024195914707 16.40625 L 116.23501496299014 10.156249999999943 L 94.1889998699252 3.7760416666666856 L 80.69017683509165 0" stroke-linecap="round" stroke-linejoin="round" stroke-miterlimit="10" stroke-width="2.5" stroke-opacity="0.9" stroke-dasharray=""/></g></g><g id="sketch-1f174599"><title>Expression 18</title><path fill="none" stroke="#000000" class="dcg-svg-point" paint-order="fill stroke markers" d=" M 167.69864504118485 281.21960147366724 L 167.69864504118485 281.4196014736673 L 167.89864504118484 281.4196014736673 L 167.89864504118484 281.21960147366724" stroke-linecap="round" stroke-linejoin="round" stroke-miterlimit="10" stroke-width="7.5" stroke-opacity="0.9" stroke-dasharray=""/></g><g id="sketch-1f174599"><title>Expression 19</title><path fill="none" stroke="#c74440" class="dcg-svg-point" paint-order="fill stroke markers" d=" M 273.9486450411847 68.71960147366755 L 273.9486450411847 68.91960147366754 L 274.14864504118475 68.91960147366754 L 274.14864504118475 68.71960147366755" stroke-linecap="round" stroke-linejoin="round" stroke-miterlimit="10" stroke-width="7.5" stroke-opacity="0.9" stroke-dasharray=""/></g></g><g id="labels-1f174599"/></g></svg>